<?xml version="1.0" encoding="UTF-8" standalone="no"?>
<!-- Generator: Adobe Illustrator 24.1.2, SVG Export Plug-In . SVG Version: 6.00 Build 0)  -->

<svg
   version="1.1"
   id="Layer_1"
   x="0px"
   y="0px"
   viewBox="0 0 2351.1729 1797.6232"
   xml:space="preserve"
   sodipodi:docname="logo.svg"
   width="2351.1729"
   height="1797.6232"
   inkscape:version="1.1.2 (0a00cf5339, 2022-02-04)"
   xmlns:inkscape="http://www.inkscape.org/namespaces/inkscape"
   xmlns:sodipodi="http://sodipodi.sourceforge.net/DTD/sodipodi-0.dtd"
   xmlns="http://www.w3.org/2000/svg"
   xmlns:svg="http://www.w3.org/2000/svg"><defs
   id="defs944" /><sodipodi:namedview
   id="namedview942"
   pagecolor="#505050"
   bordercolor="#ffffff"
   borderopacity="1"
   inkscape:pageshadow="0"
   inkscape:pageopacity="0"
   inkscape:pagecheckerboard="1"
   showgrid="false"
   fit-margin-top="0"
   fit-margin-left="0"
   fit-margin-right="0"
   fit-margin-bottom="0"
   inkscape:zoom="0.19748911"
   inkscape:cx="974.73729"
   inkscape:cy="1501.3486"
   inkscape:window-width="1920"
   inkscape:window-height="1029"
   inkscape:window-x="0"
   inkscape:window-y="27"
   inkscape:window-maximized="1"
   inkscape:current-layer="Layer_1" />
<style
   type="text/css"
   id="style908">
	.st0{fill:url(#SVGID_1_);}
</style>

<rect
   style="fill:#ffffff;stroke:none;stroke-width:41.6245;stroke-linejoin:round;stop-color:#000000"
   id="rect938"
   width="2355.269"
   height="1806.3605"
   x="4.7368984"
   y="4.2071767" /><g
   id="g2471"
   transform="matrix(6.5927267,0,0,6.5927267,-2458.7829,-159.1923)"><path
     style="fill:#211e1e;fill-opacity:1;fill-rule:nonzero;stroke:none"
     d="m 495.51562,244.72656 c -0.23046,0.58203 -0.45703,0.98438 -1,1.05469 -0.0937,0.0117 -0.26953,0.0234 -0.34765,0.0234 -0.0547,0 -0.10938,0.043 -0.10938,0.0977 0,0.0664 0.082,0.0937 0.23047,0.0937 0.48438,0 1.07813,-0.043 1.19922,-0.043 0.13672,0 0.78125,0.043 1.06641,0.043 0.10547,0 0.17578,-0.0273 0.17578,-0.0937 0,-0.0547 -0.0274,-0.0977 -0.1211,-0.0977 H 496.5 c -0.20313,0 -0.40625,-0.0781 -0.40625,-0.3086 0,-0.20312 0.0703,-0.48437 0.17578,-0.76953 l 0.67578,-1.83203 c 0.0274,-0.0664 0.0664,-0.0937 0.1211,-0.0937 h 2.73828 c 0.0664,0 0.0781,0.0117 0.10547,0.0664 l 1.0664,2.6289 c 0.082,0.1875 -0.0391,0.28516 -0.10547,0.3086 -0.0547,0.0273 -0.082,0.0273 -0.082,0.082 0,0.0664 0.1875,0.0664 0.41797,0.082 0.82031,0.0273 1.69922,0.0273 1.875,0.0273 0.13281,0 0.26953,-0.0273 0.26953,-0.0937 0,-0.0703 -0.082,-0.0977 -0.14844,-0.0977 -0.12109,0 -0.29687,-0.0117 -0.47265,-0.0664 -0.25781,-0.082 -0.57813,-0.23047 -1.01172,-1.25391 -0.72656,-1.73828 -2.62891,-6.47265 -2.84375,-6.95703 -0.125,-0.25781 -0.16406,-0.41797 -0.28516,-0.41797 -0.082,0 -0.13281,0.0664 -0.28515,0.44532 z m 1.71094,-2.39844 c -0.0391,0 -0.0508,-0.0273 -0.0391,-0.082 l 1.10547,-3.14062 c 0.0664,-0.17578 0.13672,-0.17578 0.20312,0 l 1.17188,3.14062 c 0.0156,0.0547 0.0156,0.082 -0.0391,0.082 z m 7.71485,-3.30468 c 0.36328,0.40234 1.69921,1.80859 3.07421,3.25 1.25391,1.30859 2.96875,2.99218 3.08985,3.10156 0.66015,0.60547 0.78125,0.70312 0.90234,0.70312 0.082,0 0.0937,-0.0703 0.0937,-0.82421 l 0.0274,-6.71485 c 0,-0.6875 0.0273,-0.91797 0.41796,-1 0.13282,-0.0273 0.23047,-0.0273 0.28516,-0.0273 0.0781,0 0.13281,-0.0664 0.13281,-0.10547 0,-0.0703 -0.0937,-0.082 -0.21484,-0.082 -0.48828,0 -0.87891,0.0273 -1.01172,0.0273 -0.13672,0 -0.70312,-0.0273 -1.24219,-0.0273 -0.13281,0 -0.22656,0.0117 -0.22656,0.082 0,0.0391 0.0117,0.10547 0.0937,0.10547 0.0937,0 0.36328,0.0156 0.57813,0.0547 0.36328,0.0664 0.43359,0.32421 0.44531,1.0664 l 0.12109,5.74219 c -0.36328,-0.375 -1.6289,-1.73828 -2.80469,-2.95313 -1.83203,-1.88671 -3.55859,-3.71875 -3.75,-3.91015 -0.12109,-0.1211 -0.32031,-0.34766 -0.45703,-0.34766 -0.0937,0 -0.16015,0.1211 -0.16015,0.57813 v 6.5664 c 0,1.03907 -0.043,1.34766 -0.33985,1.42969 -0.17187,0.0547 -0.39062,0.0664 -0.48437,0.0664 -0.0547,0 -0.0937,0.043 -0.0937,0.0977 0,0.0781 0.0664,0.0937 0.1875,0.0937 0.53906,0 1.03906,-0.043 1.14844,-0.043 0.10546,0 0.57812,0.043 1.2539,0.043 0.13281,0 0.21485,-0.0273 0.21485,-0.0937 0,-0.0547 -0.0391,-0.0977 -0.0937,-0.0977 -0.10938,0 -0.37891,-0.0117 -0.59375,-0.0664 -0.32422,-0.082 -0.4336,-0.36328 -0.45704,-1.30859 z m 10.26171,3.64062 c 0,1.10547 0,2.00781 -0.0664,2.48047 -0.0547,0.33594 -0.082,0.55469 -0.3086,0.60938 -0.10937,0.0273 -0.25781,0.0508 -0.36718,0.0508 -0.0664,0 -0.0937,0.0547 -0.0937,0.0977 0,0.0664 0.0664,0.0937 0.1875,0.0937 0.1914,0 0.47265,-0.0156 0.71875,-0.0273 0.23828,0 0.45703,-0.0156 0.48437,-0.0156 0.0508,0 0.45703,0.0273 0.96875,0.0703 0.51172,0.0273 1.14844,0.0664 1.66016,0.0664 2.02344,0 3.08594,-0.79687 3.60156,-1.32422 0.66016,-0.67187 1.27734,-1.77734 1.27734,-3.21875 0,-1.36328 -0.5625,-2.32031 -1.15625,-2.91406 -1.40234,-1.41797 -3.57421,-1.30859 -4.76171,-1.30859 -0.69922,0 -1.45704,0.0273 -1.58985,0.0273 -0.0664,0 -0.83594,-0.0273 -1.375,-0.0273 -0.13672,0 -0.1914,0.0273 -0.1914,0.0937 0,0.043 0.0547,0.0937 0.0937,0.0937 0.10937,0 0.3125,0.0156 0.40625,0.0273 0.39062,0.0547 0.45703,0.24219 0.48437,0.63281 0.0273,0.36719 0.0273,0.69141 0.0273,2.46875 z m 1.07813,-4.61328 c 0,-0.13281 0.043,-0.1875 0.14844,-0.22656 0.10937,-0.043 0.48828,-0.082 0.71484,-0.082 1.41797,0 2.72656,0.14843 3.84375,1.28125 0.48438,0.48437 1.12109,1.41406 1.12109,2.87109 0,1.05469 -0.3125,2.14453 -0.93359,2.72656 -0.71484,0.67188 -1.68359,1.03516 -2.77734,1.03516 -1.40235,0 -1.82032,-0.24219 -1.96875,-0.45703 -0.0937,-0.1211 -0.1211,-0.53906 -0.13282,-0.82422 -0.0156,-0.21484 -0.0156,-1.28125 -0.0156,-2.49219 z m 22.98047,-2.07422 c -0.0273,-0.25781 -0.0664,-0.36328 -0.16406,-0.36328 -0.0937,0 -0.14844,0.0937 -0.19922,0.21484 l -3.96485,8.46875 -4.1289,-8.48437 c -0.0664,-0.14844 -0.1211,-0.19922 -0.20313,-0.19922 -0.0781,0 -0.13281,0.0937 -0.14453,0.24219 l -0.97266,8.78906 c -0.0547,0.51563 -0.0937,1.03906 -0.53906,1.12109 -0.20312,0.0391 -0.29687,0.0391 -0.40625,0.0391 -0.0664,0 -0.13281,0.0273 -0.13281,0.0703 0,0.0937 0.0937,0.12109 0.22656,0.12109 0.36719,0 1.01172,-0.043 1.13281,-0.043 0.10938,0 0.75782,0.043 1.25782,0.043 0.16015,0 0.24218,-0.0273 0.24218,-0.12109 0,-0.043 -0.0547,-0.0703 -0.10937,-0.0703 -0.082,0 -0.28125,-0.0117 -0.51172,-0.0664 -0.20312,-0.0391 -0.35156,-0.21484 -0.35156,-0.41797 0,-0.23047 0,-0.47265 0.0117,-0.6875 l 0.54297,-6.25781 h 0.0547 c 0.14453,0.36719 1.65625,3.60156 1.77735,3.84375 0.0664,0.13672 1.22656,2.46875 1.57812,3.12891 0.25781,0.48437 0.32422,0.62109 0.41797,0.62109 0.12109,0 0.16016,-0.12109 0.44531,-0.71484 l 3.30469,-7.01172 h 0.0391 l 0.64844,6.99609 c 0.0273,0.24219 0.0117,0.47266 -0.0547,0.48828 -0.0664,0.0117 -0.0937,0.0391 -0.0937,0.0937 0,0.0664 0.0664,0.10547 0.375,0.13281 0.5,0.043 1.95703,0.0547 2.25391,0.0547 0.16016,0 0.28125,-0.0391 0.28125,-0.12109 0,-0.0547 -0.0391,-0.0664 -0.10547,-0.0664 -0.13672,0 -0.48437,0 -0.87891,-0.12109 -0.57812,-0.19141 -0.67187,-0.94531 -0.72656,-1.42969 z m 4.38281,6.6875 c 0,1.10547 0,2.00781 -0.0703,2.48047 -0.0508,0.33594 -0.0781,0.56641 -0.3086,0.60938 -0.10937,0.0117 -0.25781,0.0508 -0.36328,0.0508 -0.0664,0 -0.0937,0.0547 -0.0937,0.0977 0,0.0664 0.0664,0.0937 0.1875,0.0937 0.1875,0 0.45703,-0.0156 0.6875,-0.0273 0.25782,-0.0156 0.48438,-0.0156 0.51172,-0.0156 0.17578,0 0.48438,0 0.98438,0.0273 0.48828,0.0156 1.17187,0.043 2.0625,0.043 0.46093,0 0.58203,0 0.66406,-0.29688 0.0664,-0.24609 0.16016,-1.02734 0.16016,-1.10547 0,-0.082 -0.0156,-0.17578 -0.082,-0.17578 -0.0664,0 -0.0937,0.0391 -0.12109,0.17578 -0.0664,0.45703 -0.23047,0.66016 -0.53906,0.79297 -0.3086,0.1211 -0.875,0.1211 -1.1875,0.1211 -1.17188,0 -1.38672,-0.14844 -1.41406,-0.91407 -0.0156,-0.23047 0,-1.5664 0,-1.95703 v -0.95703 c 0,-0.0391 0.0117,-0.082 0.0781,-0.082 0.20313,0 1.47266,0.0156 1.79688,0.0547 0.45703,0.0547 0.5664,0.1875 0.60546,0.35156 0.0547,0.14844 0.0547,0.26953 0.0547,0.37891 0,0.0664 0.0274,0.10546 0.082,0.10546 0.0781,0 0.10547,-0.12109 0.10547,-0.21484 0,-0.082 0.0274,-0.51172 0.0547,-0.74219 0.0273,-0.3789 0.0937,-0.5664 0.0937,-0.63281 0,-0.0703 -0.0273,-0.0937 -0.0664,-0.0937 -0.0391,0 -0.0937,0.0664 -0.17578,0.14453 -0.12109,0.125 -0.29687,0.13672 -0.57812,0.16406 -0.26953,0.0273 -1.83594,0.0273 -1.98438,0.0273 -0.0664,0 -0.0664,-0.043 -0.0664,-0.1211 v -3.11718 c 0,-0.0781 0.0117,-0.1211 0.0664,-0.1211 0.13672,0 1.51172,0.0156 1.71485,0.043 0.64453,0.0781 0.76562,0.16016 0.84765,0.34766 0.0547,0.13672 0.0664,0.32422 0.0664,0.40625 0,0.0937 0.0273,0.14844 0.0937,0.14844 0.0547,0 0.0977,-0.0664 0.10937,-0.1211 0.0274,-0.13672 0.0547,-0.64844 0.0664,-0.7539 0.0273,-0.32422 0.0977,-0.46094 0.0977,-0.54297 0,-0.0508 -0.0156,-0.10547 -0.0547,-0.10547 -0.0547,0 -0.10938,0.0391 -0.16406,0.0547 -0.0937,0.0117 -0.3086,0.0508 -0.53907,0.0664 -0.26953,0.0117 -2.75,0 -2.83203,0 -0.0664,0 -0.83594,-0.0273 -1.375,-0.0273 -0.13672,0 -0.1875,0.0273 -0.1875,0.0937 0,0.043 0.0508,0.0937 0.0937,0.0937 0.10938,0 0.3086,0.0156 0.40235,0.0273 0.39453,0.0547 0.46093,0.24219 0.48828,0.63281 0.0273,0.36719 0.0273,0.69141 0.0273,2.46875 z m 11.09766,3.48047 c 0.76953,0 1.66015,-0.0664 2.14453,-0.25781 0.19922,-0.082 0.22656,-0.1211 0.29687,-0.33594 0.1211,-0.39062 0.28125,-1.39062 0.28125,-1.46875 0,-0.082 -0.0547,-0.16406 -0.10547,-0.16406 -0.082,0 -0.0977,0.0391 -0.12109,0.16406 -0.043,0.21484 -0.20312,0.69922 -0.46094,0.95703 -0.47265,0.46875 -1.0664,0.53906 -1.95312,0.53906 -2.53516,0 -4.27735,-1.95703 -4.27735,-4.15625 0,-1.16015 0.19141,-2.18359 1.06641,-2.99218 0.41797,-0.39063 1.14453,-0.79688 2.66797,-0.79688 1.05469,0 1.91797,0.28516 2.33594,0.63672 0.30859,0.24219 0.49609,0.69922 0.49609,1.14453 0,0.16406 0.0156,0.24219 0.0977,0.24219 0.0664,0 0.12109,-0.0664 0.13281,-0.24219 0.0156,-0.16015 0.0156,-0.79687 0.0273,-1.17187 0.0274,-0.41797 0.0547,-0.55469 0.0547,-0.64844 0,-0.0664 -0.0273,-0.12109 -0.14844,-0.12109 -0.39062,-0.0117 -0.76953,-0.0937 -1.21484,-0.17579 -0.57813,-0.0937 -1.25391,-0.13281 -1.72656,-0.13281 -1.82032,0 -2.89844,0.53906 -3.61328,1.22656 -1.05079,1.02344 -1.33594,2.35938 -1.33594,3.12891 0,1.08984 0.28515,2.39844 1.44531,3.39844 0.92969,0.80859 2.12891,1.22656 3.91016,1.22656 m 12.44531,-5.50391 c 0,-1.77734 0,-2.10156 0.0273,-2.46875 0.0274,-0.40234 0.0937,-0.5664 0.40625,-0.63281 0.14453,-0.0273 0.21485,-0.0273 0.29688,-0.0273 0.0508,0 0.10547,-0.0508 0.10547,-0.0937 0,-0.0664 -0.0664,-0.0937 -0.20313,-0.0937 -0.34765,0 -1.10547,0.0273 -1.17187,0.0273 -0.0547,0 -0.82032,-0.0273 -1.34766,-0.0273 -0.13672,0 -0.1875,0.0273 -0.1875,0.0937 0,0.043 0.0391,0.0937 0.0937,0.0937 0.10547,0 0.30859,0.0156 0.40234,0.0273 0.39063,0.0547 0.44532,0.24219 0.47266,0.63281 0.0117,0.36719 0.0273,0.71485 0.0273,2.4961 v 0.24219 c 0,0.0664 -0.0273,0.0664 -0.0664,0.0664 h -4.94922 c -0.043,0 -0.0664,0 -0.0664,-0.0664 v -0.24219 c 0,-1.78125 0,-2.12891 0.0117,-2.4961 0.0274,-0.40234 0.0937,-0.5664 0.41797,-0.63281 0.13281,-0.0273 0.21484,-0.0273 0.29688,-0.0273 0.0391,0 0.0937,-0.0508 0.0937,-0.0937 0,-0.0664 -0.0547,-0.0937 -0.1875,-0.0937 -0.36329,0 -1.1211,0.0273 -1.17579,0.0273 -0.0664,0 -0.82031,-0.0273 -1.35937,-0.0273 -0.13672,0 -0.19141,0.0273 -0.19141,0.0937 0,0.043 0.0547,0.0937 0.0977,0.0937 0.10547,0 0.30859,0.0156 0.40234,0.0273 0.39063,0.0547 0.45703,0.24219 0.48438,0.63281 0.0273,0.36719 0.0273,0.69141 0.0273,2.46875 v 2.02344 c 0,1.10547 0,2.00781 -0.0664,2.48047 -0.0547,0.33594 -0.082,0.55469 -0.3086,0.60938 -0.10937,0.0273 -0.25781,0.0508 -0.36719,0.0508 -0.0664,0 -0.0937,0.0547 -0.0937,0.0977 0,0.0664 0.0664,0.0937 0.19141,0.0937 0.36328,0 1.11719,-0.043 1.18359,-0.043 0.0547,0 0.8125,0.043 1.47266,0.043 0.13281,0 0.1875,-0.043 0.1875,-0.0937 0,-0.043 -0.0273,-0.0977 -0.0937,-0.0977 -0.10937,0 -0.36328,-0.0234 -0.53906,-0.0508 -0.35156,-0.0547 -0.39063,-0.27344 -0.4336,-0.60938 -0.0508,-0.47266 -0.0508,-1.34766 -0.0508,-2.45312 v -1.14454 c 0,-0.0547 0.0234,-0.0703 0.0664,-0.0703 h 4.94922 c 0.0391,0 0.0664,0.0156 0.0664,0.0703 v 1.14454 c 0,1.10546 0,1.96875 -0.0547,2.4414 -0.0391,0.33594 -0.082,0.56641 -0.32422,0.6211 -0.10547,0.0273 -0.24219,0.0508 -0.35156,0.0508 -0.0664,0 -0.0937,0.0547 -0.0937,0.0977 0,0.0664 0.0547,0.0937 0.1914,0.0937 0.35156,0 1.11719,-0.043 1.17188,-0.043 0.0664,0 0.82422,0.043 1.46875,0.043 0.13672,0 0.20312,-0.043 0.20312,-0.0937 0,-0.043 -0.0273,-0.0977 -0.10937,-0.0977 -0.0937,0 -0.36328,-0.0234 -0.52344,-0.0508 -0.36328,-0.0547 -0.39063,-0.27344 -0.43359,-0.60938 -0.0508,-0.47266 -0.0664,-1.375 -0.0664,-2.48047 z m 2.85937,4.08594 c -0.23046,0.58203 -0.45703,0.98438 -1,1.05469 -0.0937,0.0117 -0.26562,0.0234 -0.34765,0.0234 -0.0547,0 -0.10938,0.043 -0.10938,0.0977 0,0.0664 0.082,0.0937 0.23047,0.0937 0.48438,0 1.07813,-0.043 1.19922,-0.043 0.13672,0 0.78125,0.043 1.06641,0.043 0.10547,0 0.17578,-0.0273 0.17578,-0.0937 0,-0.0547 -0.0273,-0.0977 -0.125,-0.0977 h -0.10547 c -0.20313,0 -0.40625,-0.0781 -0.40625,-0.3086 0,-0.20312 0.0703,-0.48437 0.17578,-0.76953 l 0.67578,-1.83203 c 0.0274,-0.0664 0.0664,-0.0937 0.1211,-0.0937 h 2.73828 c 0.0664,0 0.0781,0.0117 0.10547,0.0664 l 1.0664,2.6289 c 0.082,0.1875 -0.0391,0.28516 -0.10547,0.3086 -0.0547,0.0273 -0.082,0.0273 -0.082,0.082 0,0.0664 0.1875,0.0664 0.41797,0.082 0.82031,0.0273 1.69922,0.0273 1.875,0.0273 0.13281,0 0.26953,-0.0273 0.26953,-0.0937 0,-0.0703 -0.082,-0.0977 -0.14844,-0.0977 -0.12109,0 -0.29687,-0.0117 -0.47265,-0.0664 -0.25781,-0.082 -0.58203,-0.23047 -1.01172,-1.25391 -0.72656,-1.73828 -2.62891,-6.47265 -2.84375,-6.95703 -0.12109,-0.25781 -0.16406,-0.41797 -0.28516,-0.41797 -0.082,0 -0.13281,0.0664 -0.28125,0.44532 z m 1.71094,-2.39844 c -0.0391,0 -0.0508,-0.0273 -0.0391,-0.082 l 1.10547,-3.14062 c 0.0664,-0.17578 0.13672,-0.17578 0.20312,0 l 1.17188,3.14062 c 0.0156,0.0547 0.0156,0.082 -0.0391,0.082 z m 7.71485,-3.30468 c 0.36328,0.40234 1.69921,1.80859 3.07421,3.25 1.25391,1.30859 2.96485,2.99218 3.08985,3.10156 0.66015,0.60547 0.78125,0.70312 0.90234,0.70312 0.082,0 0.0937,-0.0703 0.0937,-0.82421 l 0.0274,-6.71485 c 0,-0.6875 0.0273,-0.91797 0.41796,-1 0.13672,-0.0273 0.23047,-0.0273 0.28516,-0.0273 0.0781,0 0.13281,-0.0664 0.13281,-0.10547 0,-0.0703 -0.0937,-0.082 -0.21484,-0.082 -0.48828,0 -0.87891,0.0273 -1.01172,0.0273 -0.13672,0 -0.70312,-0.0273 -1.24219,-0.0273 -0.13281,0 -0.22656,0.0117 -0.22656,0.082 0,0.0391 0.0117,0.10547 0.0937,0.10547 0.0937,0 0.36328,0.0156 0.57813,0.0547 0.36328,0.0664 0.43359,0.32421 0.44531,1.0664 l 0.12109,5.74219 c -0.36328,-0.375 -1.6289,-1.73828 -2.80469,-2.95313 -1.83203,-1.88671 -3.55859,-3.71875 -3.74609,-3.91015 -0.125,-0.1211 -0.32422,-0.34766 -0.46094,-0.34766 -0.0937,0 -0.16015,0.1211 -0.16015,0.57813 v 6.5664 c 0,1.03907 -0.043,1.34766 -0.33985,1.42969 -0.17578,0.0547 -0.39062,0.0664 -0.48437,0.0664 -0.0547,0 -0.0937,0.043 -0.0937,0.0977 0,0.0781 0.0664,0.0937 0.1875,0.0937 0.53906,0 1.03906,-0.043 1.14844,-0.043 0.10546,0 0.57812,0.043 1.2539,0.043 0.13281,0 0.21485,-0.0273 0.21485,-0.0937 0,-0.0547 -0.0391,-0.0977 -0.0937,-0.0977 -0.10938,0 -0.37891,-0.0117 -0.59375,-0.0664 -0.32422,-0.082 -0.4336,-0.36328 -0.45704,-1.30859 z m 11.33984,1.61718 c 0,-1.77734 0,-2.10156 0.0156,-2.46875 0.0273,-0.40234 0.0937,-0.5664 0.41797,-0.63281 0.13282,-0.0273 0.21485,-0.0273 0.29688,-0.0273 0.0391,0 0.0937,-0.0508 0.0937,-0.0937 0,-0.0664 -0.0547,-0.0937 -0.1875,-0.0937 -0.36719,0 -1.13281,0.0273 -1.1875,0.0273 -0.0664,0 -0.8086,-0.0273 -1.20313,-0.0273 -0.13281,0 -0.1875,0.0273 -0.1875,0.0937 0,0.043 0.043,0.0937 0.0937,0.0937 0.082,0 0.23047,0.0156 0.36719,0.043 0.25391,0.0508 0.34766,0.22656 0.375,0.61718 0.0273,0.36719 0.0273,0.69141 0.0273,2.46875 v 2.02344 c 0,1.10547 -0.0117,2.00781 -0.0664,2.48047 -0.043,0.33594 -0.082,0.55469 -0.3086,0.60938 -0.10937,0.0273 -0.25781,0.0508 -0.36718,0.0508 -0.0664,0 -0.0937,0.0547 -0.0937,0.0977 0,0.0664 0.0664,0.0937 0.1875,0.0937 0.36718,0 1.10937,-0.043 1.17578,-0.043 0.0547,0 0.82031,0.043 1.48437,0.043 0.13282,0 0.1875,-0.043 0.1875,-0.0937 0,-0.043 -0.0273,-0.0977 -0.0937,-0.0977 -0.10937,0 -0.36718,-0.0234 -0.53906,-0.0508 -0.35156,-0.0547 -0.39453,-0.27344 -0.43359,-0.60938 -0.0547,-0.47266 -0.0547,-1.375 -0.0547,-2.48047 z m 7.64844,5.50391 c 0.76562,0 1.65625,-0.0664 2.14062,-0.25781 0.20313,-0.082 0.23047,-0.1211 0.30078,-0.33594 0.1211,-0.39062 0.28125,-1.39062 0.28125,-1.46875 0,-0.082 -0.0547,-0.16406 -0.10937,-0.16406 -0.0781,0 -0.0937,0.0391 -0.1211,0.16406 -0.0391,0.21484 -0.19921,0.69922 -0.45703,0.95703 -0.47265,0.46875 -1.0664,0.53906 -1.95703,0.53906 -2.53515,0 -4.27344,-1.95703 -4.27344,-4.15625 0,-1.16015 0.1875,-2.18359 1.06641,-2.99218 0.41797,-0.39063 1.14453,-0.79688 2.66797,-0.79688 1.05078,0 1.91406,0.28516 2.33203,0.63672 0.3125,0.24219 0.5,0.69922 0.5,1.14453 0,0.16406 0.0156,0.24219 0.0937,0.24219 0.0703,0 0.12109,-0.0664 0.13672,-0.24219 0.0117,-0.16015 0.0117,-0.79687 0.0273,-1.17187 0.0274,-0.41797 0.0547,-0.55469 0.0547,-0.64844 0,-0.0664 -0.0273,-0.12109 -0.14844,-0.12109 -0.39453,-0.0117 -0.76953,-0.0937 -1.21484,-0.17579 -0.57813,-0.0937 -1.25391,-0.13281 -1.72656,-0.13281 -1.82032,0 -2.89844,0.53906 -3.61328,1.22656 -1.05079,1.02344 -1.33594,2.35938 -1.33594,3.12891 0,1.08984 0.28515,2.39844 1.4414,3.39844 0.9336,0.80859 2.13282,1.22656 3.91407,1.22656 m 5.92968,0 c 0.64844,0 1.39063,-0.082 1.89063,-0.40625 0.84766,-0.55469 1.10547,-1.28125 1.10547,-1.95312 0,-0.98438 -0.5,-1.78125 -1.94141,-2.76563 l -0.33594,-0.23047 c -1.17578,-0.79297 -1.53906,-1.21094 -1.53906,-1.9414 0,-0.8086 0.71485,-1.24219 1.57813,-1.24219 1.0664,0 1.45703,0.43359 1.53515,0.5664 0.0703,0.125 0.16407,0.4336 0.17578,0.57032 0.0156,0.0937 0.0273,0.14453 0.10938,0.14453 0.082,0 0.0937,-0.0781 0.0937,-0.25391 0,-0.78125 0.0547,-1.16015 0.0547,-1.21484 0,-0.0664 -0.0274,-0.082 -0.1211,-0.082 -0.0937,0 -0.1914,0 -0.41797,-0.0508 -0.28515,-0.0703 -0.7539,-0.13672 -1.22656,-0.13672 -1.5664,0 -2.63281,0.80859 -2.63281,2.15625 0,0.79687 0.41797,1.5 1.69922,2.45703 l 0.54297,0.40234 c 1.05078,0.78516 1.49609,1.17578 1.49609,1.9961 0,0.86328 -0.60937,1.52343 -1.78125,1.52343 -0.79687,0 -1.68359,-0.29687 -1.875,-1.13281 -0.0391,-0.16016 -0.0391,-0.32422 -0.0391,-0.41797 0,-0.0937 -0.043,-0.13281 -0.10938,-0.13281 -0.0664,0 -0.0937,0.0664 -0.0937,0.1875 -0.0117,0.1875 -0.0664,0.64844 -0.0664,1.21484 0,0.3086 0.0117,0.35157 0.17578,0.42969 0.48437,0.23047 1.17187,0.3125 1.72265,0.3125"
     id="path2249" /><path
     style="fill:#211e1e;fill-opacity:1;fill-rule:nonzero;stroke:none"
     d="m 445.29687,225.45703 c 0,2.0625 1.39063,4.50391 4.64063,4.50391 2.85937,0 4.75781,-2.11719 4.75781,-4.67969 0,-2.66797 -2.01953,-4.30078 -4.6914,-4.30078 -3.27735,0 -4.70704,2.6289 -4.70704,4.47656 m 1.22657,-0.30859 c 0,-2.4961 1.42968,-3.73828 3.41406,-3.73828 1.875,0 3.54687,1.44531 3.54687,4.19531 0,3.3164 -2.14453,3.88281 -3.21093,3.88281 -2.14453,0 -3.75,-1.67187 -3.75,-4.33984 m 10.3164,1.33203 c 0,1.10937 0,2.01172 -0.0664,2.48437 -0.0547,0.33594 -0.082,0.5625 -0.3086,0.60547 -0.10937,0.0117 -0.25781,0.0547 -0.36328,0.0547 -0.0703,0 -0.0976,0.0547 -0.0976,0.0937 0,0.0664 0.0703,0.0937 0.1914,0.0937 0.36328,0 1.10547,-0.0391 1.17188,-0.0391 0.0547,0 0.82422,0.0391 1.48437,0.0391 0.13281,0 0.1875,-0.0391 0.1875,-0.0937 0,-0.0391 -0.0273,-0.0937 -0.0937,-0.0937 -0.10937,0 -0.36328,-0.0273 -0.53906,-0.0547 -0.32422,-0.0547 -0.39063,-0.26953 -0.43359,-0.60547 -0.0547,-0.44531 -0.0547,-1.35156 -0.0547,-2.48437 v -0.91406 c 0,-0.082 0.0156,-0.10938 0.082,-0.10938 0.20312,0 1.60547,-0.0117 1.90234,0.0273 0.36328,0.0547 0.55078,0.20313 0.60547,0.36329 0.0547,0.13671 0.0703,0.29687 0.082,0.41796 0,0.0547 0.0156,0.10938 0.082,0.10938 0.0781,0 0.10547,-0.12109 0.10547,-0.23047 0,-0.082 0.0156,-0.53906 0.043,-0.76953 0.0274,-0.375 0.10547,-0.56641 0.10547,-0.63281 0,-0.0547 -0.0117,-0.0937 -0.0664,-0.0937 -0.0391,0 -0.0937,0.0547 -0.14843,0.12109 -0.10547,0.13281 -0.26953,0.17578 -0.55078,0.20313 -0.16407,0.0117 -0.33985,0.0117 -0.54297,0.0117 L 458,225 c -0.082,0 -0.082,-0.043 -0.082,-0.10938 v -3.1289 c 0,-0.0937 0.0273,-0.1211 0.0976,-0.1211 l 1.94141,0.0273 c 0.45703,0 0.74219,0.1875 0.80859,0.33594 0.0664,0.14843 0.10547,0.33984 0.10547,0.43359 0,0.0781 0.043,0.13281 0.0977,0.13281 0.0547,0 0.0937,-0.0664 0.10547,-0.12109 0.0273,-0.13281 0.043,-0.64453 0.0547,-0.75391 0.0391,-0.32422 0.0937,-0.46094 0.0937,-0.53906 0,-0.0547 -0.0274,-0.10938 -0.0781,-0.10938 -0.043,0 -0.0937,0.0547 -0.16406,0.0664 -0.10938,0.043 -0.3086,0.043 -0.53906,0.0547 -0.26954,0.0156 -2.84375,0 -3.07422,0 -0.0664,0 -0.8086,-0.0273 -1.34766,-0.0273 -0.13672,0 -0.19141,0.0273 -0.19141,0.0937 0,0.043 0.0547,0.0977 0.0977,0.0977 0.10547,0 0.30859,0.0117 0.40234,0.0273 0.39063,0.0508 0.45704,0.24219 0.48438,0.63282 0.0273,0.36328 0.0273,0.6875 0.0273,2.46875 z m 20.36328,-6.6875 c -0.0273,-0.25391 -0.0664,-0.36328 -0.16015,-0.36328 -0.0977,0 -0.14844,0.0937 -0.20313,0.21484 l -3.96484,8.46875 -4.12891,-8.48047 c -0.0664,-0.14844 -0.12109,-0.20312 -0.19922,-0.20312 -0.082,0 -0.13671,0.0937 -0.14843,0.24218 l -0.97266,8.79297 c -0.0547,0.51172 -0.0937,1.03907 -0.53906,1.11719 -0.20313,0.043 -0.29688,0.043 -0.40235,0.043 -0.0703,0 -0.13671,0.0273 -0.13671,0.0664 0,0.0937 0.0937,0.12109 0.23046,0.12109 0.36329,0 1.01172,-0.0391 1.13282,-0.0391 0.10547,0 0.7539,0.0391 1.2539,0.0391 0.16016,0 0.24219,-0.0273 0.24219,-0.12109 0,-0.0391 -0.0547,-0.0664 -0.10937,-0.0664 -0.0781,0 -0.28125,-0.0156 -0.51172,-0.0703 -0.20313,-0.0391 -0.35157,-0.21485 -0.35157,-0.41797 0,-0.22656 0,-0.46875 0.0156,-0.6836 l 0.53906,-6.25781 h 0.0547 c 0.14844,0.36328 1.65625,3.59766 1.77734,3.84375 0.0703,0.13281 1.23047,2.46485 1.57813,3.125 0.25781,0.48828 0.32422,0.6211 0.41797,0.6211 0.12109,0 0.16406,-0.1211 0.44531,-0.71485 l 3.30469,-7.01172 h 0.0391 l 0.64844,7 c 0.0273,0.24219 0.0156,0.46875 -0.0547,0.48438 -0.0664,0.0117 -0.0937,0.0391 -0.0937,0.0937 0,0.0703 0.0664,0.10937 0.37891,0.13672 0.49609,0.0391 1.95312,0.0547 2.25,0.0547 0.16406,0 0.28515,-0.043 0.28515,-0.12109 0,-0.0547 -0.043,-0.0703 -0.10937,-0.0703 -0.13282,0 -0.48438,0 -0.875,-0.1211 -0.58203,-0.1875 -0.67578,-0.94531 -0.73047,-1.42968 z m 3.69532,8.7539 c -0.23047,0.57813 -0.45703,0.98047 -1,1.05079 -0.0937,0.0117 -0.26953,0.0273 -0.34766,0.0273 -0.0547,0 -0.10937,0.0391 -0.10937,0.0937 0,0.0664 0.082,0.0937 0.23046,0.0937 0.48438,0 1.07813,-0.0391 1.19922,-0.0391 0.13672,0 0.78125,0.0391 1.06641,0.0391 0.10547,0 0.17578,-0.0273 0.17578,-0.0937 0,-0.0547 -0.0273,-0.0937 -0.125,-0.0937 h -0.10547 c -0.20312,0 -0.40625,-0.082 -0.40625,-0.3125 0,-0.20313 0.0664,-0.48438 0.17578,-0.76563 l 0.67578,-1.83593 c 0.0274,-0.0664 0.0664,-0.0937 0.1211,-0.0937 h 2.73828 c 0.0664,0 0.0781,0.0117 0.10547,0.0664 l 1.0664,2.62891 c 0.082,0.19141 -0.0391,0.28516 -0.10937,0.3125 -0.0508,0.0273 -0.0781,0.0273 -0.0781,0.082 0,0.0664 0.1875,0.0664 0.41797,0.0781 0.82032,0.0273 1.69922,0.0273 1.875,0.0273 0.13282,0 0.26953,-0.0273 0.26953,-0.0937 0,-0.0664 -0.082,-0.0937 -0.14843,-0.0937 -0.1211,0 -0.29688,-0.0156 -0.47266,-0.0703 -0.25781,-0.0781 -0.58203,-0.22657 -1.01172,-1.25391 -0.73047,-1.73828 -2.6289,-6.47266 -2.84375,-6.95703 -0.12109,-0.25391 -0.16406,-0.41797 -0.28515,-0.41797 -0.082,0 -0.13282,0.0664 -0.28125,0.44531 z m 1.71093,-2.40234 c -0.0391,0 -0.0508,-0.0273 -0.0391,-0.082 l 1.10547,-3.14063 c 0.0664,-0.17578 0.13672,-0.17578 0.20313,0 l 1.17187,3.14063 c 0.0156,0.0547 0.0156,0.082 -0.0391,0.082 z m 9.07813,-4.47656 1.48047,0.0273 c 1.13281,0.0273 1.39062,0.28125 1.42969,0.63281 l 0.0156,0.1211 c 0.0117,0.16406 0.0391,0.20312 0.0937,0.20312 0.0547,0 0.10938,-0.0547 0.10938,-0.14843 0,-0.13282 0.0391,-0.95704 0.0391,-1.3086 0,-0.0664 0,-0.13281 -0.0547,-0.13281 -0.0547,0 -0.16016,0.0273 -0.33594,0.0508 -0.1914,0.0273 -0.45703,0.0547 -0.85156,0.0547 h -4.47656 c -0.13281,0 -0.59375,-0.0117 -0.92969,-0.0547 -0.32422,-0.0391 -0.44531,-0.13281 -0.52734,-0.13281 -0.0391,0 -0.10547,0.14844 -0.1211,0.21484 -0.0273,0.0937 -0.2539,1.1211 -0.2539,1.24219 0,0.0664 0.0508,0.0937 0.0781,0.0937 0.0547,0 0.0977,-0.0156 0.125,-0.10938 0.0391,-0.0781 0.0508,-0.16015 0.1875,-0.36328 0.17578,-0.26953 0.45703,-0.35156 1.19922,-0.36328 l 1.71094,-0.0273 v 4.8125 c 0,1.10937 0,2.01172 -0.0508,2.48437 -0.043,0.33594 -0.10938,0.5625 -0.35157,0.61719 -0.10937,0.0273 -0.24218,0.0547 -0.35156,0.0547 -0.0664,0 -0.0937,0.043 -0.0937,0.082 0,0.0664 0.0547,0.0937 0.1875,0.0937 0.35156,0 1.17578,-0.0391 1.23047,-0.0391 0.0664,0 0.82031,0.0391 1.46875,0.0391 0.13281,0 0.1875,-0.0391 0.1875,-0.0937 0,-0.0391 -0.0117,-0.0937 -0.0937,-0.0937 -0.10937,0 -0.37891,-0.0273 -0.53906,-0.0547 -0.36719,-0.0547 -0.41797,-0.26953 -0.46094,-0.60547 -0.0508,-0.47265 -0.0508,-1.375 -0.0508,-2.48437 z m 12.53906,2.79297 c 0,-1.78125 0,-2.10547 0.0274,-2.46875 0.0273,-0.40625 0.0937,-0.56641 0.40625,-0.63282 0.14843,-0.0273 0.21484,-0.0273 0.29296,-0.0273 0.0547,0 0.10938,-0.0547 0.10938,-0.0977 0,-0.0664 -0.0664,-0.0937 -0.20313,-0.0937 -0.34765,0 -1.10546,0.0273 -1.17187,0.0273 -0.0547,0 -0.82422,-0.0273 -1.34766,-0.0273 -0.13672,0 -0.1914,0.0273 -0.1914,0.0937 0,0.043 0.043,0.0977 0.0976,0.0977 0.10547,0 0.3086,0.0117 0.40235,0.0273 0.39062,0.0508 0.44531,0.24219 0.47265,0.63282 0.0156,0.36328 0.0274,0.71484 0.0274,2.49218 v 0.2461 c 0,0.0664 -0.0274,0.0664 -0.0664,0.0664 h -4.94922 c -0.043,0 -0.0703,0 -0.0703,-0.0664 v -0.2461 c 0,-1.77734 0,-2.1289 0.0156,-2.49218 0.0274,-0.40625 0.0937,-0.56641 0.41797,-0.63282 0.13672,-0.0273 0.21485,-0.0273 0.29688,-0.0273 0.0391,0 0.0937,-0.0547 0.0937,-0.0977 0,-0.0664 -0.0547,-0.0937 -0.1875,-0.0937 -0.36719,0 -1.1211,0.0273 -1.17578,0.0273 -0.0664,0 -0.82032,-0.0273 -1.35938,-0.0273 -0.13672,0 -0.1914,0.0273 -0.1914,0.0937 0,0.043 0.0547,0.0977 0.0976,0.0977 0.10547,0 0.3086,0.0117 0.40235,0.0273 0.39062,0.0508 0.46093,0.24219 0.48437,0.63282 0.0273,0.36328 0.0273,0.6875 0.0273,2.46875 v 2.01953 c 0,1.10937 0,2.01172 -0.0664,2.48437 -0.0547,0.33594 -0.082,0.55078 -0.3086,0.60547 -0.10937,0.0273 -0.25781,0.0547 -0.36718,0.0547 -0.0664,0 -0.0937,0.0547 -0.0937,0.0937 0,0.0664 0.0703,0.0937 0.1914,0.0937 0.36328,0 1.11719,-0.0391 1.1836,-0.0391 0.0547,0 0.80859,0.0391 1.47265,0.0391 0.13282,0 0.1875,-0.0391 0.1875,-0.0937 0,-0.0391 -0.0273,-0.0937 -0.0937,-0.0937 -0.10937,0 -0.36328,-0.0273 -0.53906,-0.0547 -0.35156,-0.0547 -0.39062,-0.26953 -0.43359,-0.60547 -0.0547,-0.47265 -0.0547,-1.35156 -0.0547,-2.45703 v -1.14453 c 0,-0.0547 0.0273,-0.0664 0.0703,-0.0664 h 4.94922 c 0.0391,0 0.0664,0.0117 0.0664,0.0664 v 1.14453 c 0,1.10547 0,1.96875 -0.0547,2.44141 -0.0391,0.33984 -0.082,0.5664 -0.32422,0.62109 -0.10547,0.0273 -0.24219,0.0547 -0.35156,0.0547 -0.0664,0 -0.0937,0.0547 -0.0937,0.0937 0,0.0664 0.0547,0.0937 0.1914,0.0937 0.34766,0 1.11719,-0.0391 1.17188,-0.0391 0.0664,0 0.82422,0.0391 1.46875,0.0391 0.13672,0 0.20312,-0.0391 0.20312,-0.0937 0,-0.0391 -0.0273,-0.0937 -0.10937,-0.0937 -0.0937,0 -0.36328,-0.0273 -0.52344,-0.0547 -0.36328,-0.0547 -0.39062,-0.26953 -0.43359,-0.60547 -0.0547,-0.47265 -0.0664,-1.375 -0.0664,-2.48437 z m 3.57422,2.01953 c 0,1.10937 0,2.01172 -0.0664,2.48437 -0.0547,0.33594 -0.082,0.5625 -0.3125,0.60547 -0.10546,0.0117 -0.2539,0.0547 -0.36328,0.0547 -0.0664,0 -0.0937,0.0547 -0.0937,0.0937 0,0.0664 0.0664,0.0937 0.1875,0.0937 0.19141,0 0.46094,-0.0117 0.6875,-0.0273 0.25782,-0.0117 0.48438,-0.0117 0.51172,-0.0117 0.17578,0 0.48828,0 0.98828,0.0273 0.48438,0.0117 1.17188,0.0391 2.0625,0.0391 0.45703,0 0.57813,0 0.66016,-0.29687 0.0664,-0.24219 0.16016,-1.02344 0.16016,-1.10547 0,-0.082 -0.0117,-0.17578 -0.0781,-0.17578 -0.0703,0 -0.0977,0.0391 -0.125,0.17578 -0.0664,0.45703 -0.22656,0.66016 -0.53906,0.79687 -0.3086,0.1211 -0.875,0.1211 -1.1875,0.1211 -1.17188,0 -1.38672,-0.14844 -1.41406,-0.91797 -0.0117,-0.23047 0,-1.5625 0,-1.95703 v -0.95703 c 0,-0.0391 0.0156,-0.0781 0.082,-0.0781 0.19922,0 1.46875,0.0117 1.79297,0.0508 0.45703,0.0547 0.5664,0.19141 0.60546,0.35157 0.0547,0.14843 0.0547,0.26953 0.0547,0.3789 0,0.0664 0.0274,0.10938 0.082,0.10938 0.0781,0 0.10547,-0.125 0.10547,-0.21875 0,-0.0781 0.0274,-0.51172 0.0547,-0.74219 0.0273,-0.375 0.0937,-0.56641 0.0937,-0.63281 0,-0.0664 -0.0234,-0.0937 -0.0664,-0.0937 -0.0391,0 -0.0937,0.0664 -0.17578,0.14843 -0.12109,0.1211 -0.29687,0.13282 -0.57812,0.16016 -0.26953,0.0273 -1.83594,0.0273 -1.98438,0.0273 -0.0664,0 -0.0664,-0.0391 -0.0664,-0.12109 V 221.75 c 0,-0.082 0.0156,-0.12109 0.0664,-0.12109 0.13672,0 1.51172,0.0117 1.71485,0.0391 0.64843,0.082 0.76953,0.16015 0.84765,0.35156 0.0547,0.13281 0.0664,0.32422 0.0664,0.40234 0,0.0937 0.0273,0.14844 0.0976,0.14844 0.0547,0 0.0937,-0.0664 0.10547,-0.12109 0.0274,-0.13281 0.0547,-0.64453 0.0703,-0.75391 0.0234,-0.32422 0.0937,-0.46094 0.0937,-0.53906 0,-0.0547 -0.0156,-0.10938 -0.0547,-0.10938 -0.0547,0 -0.10938,0.043 -0.16016,0.0547 -0.0976,0.0117 -0.3125,0.0547 -0.54297,0.0664 -0.26953,0.0156 -2.75,0 -2.83203,0 -0.0664,0 -0.83594,-0.0273 -1.375,-0.0273 -0.13281,0 -0.1875,0.0273 -0.1875,0.0937 0,0.043 0.0547,0.0977 0.0937,0.0977 0.10938,0 0.3125,0.0117 0.40625,0.0273 0.39063,0.0508 0.45703,0.24219 0.48438,0.63282 0.0273,0.36328 0.0273,0.6875 0.0273,2.46875 z m 15.17188,-5.19141 c -0.0274,-0.21484 -0.0977,-0.30859 -0.17579,-0.30859 -0.082,0 -0.13671,0.082 -0.1914,0.1875 l -3.44922,7.10547 -3.58984,-7.11719 c -0.0664,-0.13672 -0.16016,-0.17578 -0.24219,-0.17578 -0.0664,0 -0.1211,0.082 -0.13281,0.20312 l -0.86329,7.48438 c -0.0547,0.42969 -0.0664,0.84765 -0.46093,0.91406 -0.17578,0.0273 -0.25391,0.043 -0.34766,0.043 -0.0703,0 -0.12109,0.0391 -0.12109,0.082 0,0.0781 0.0781,0.10547 0.19922,0.10547 0.32421,0 0.89062,-0.0391 1,-0.0391 0.0937,0 0.66015,0.0391 1.10546,0.0391 0.13672,0 0.21485,-0.0273 0.21485,-0.10547 0,-0.043 -0.0547,-0.082 -0.0937,-0.082 -0.082,0 -0.25781,-0.0156 -0.45703,-0.0703 -0.17578,-0.0391 -0.28516,-0.14844 -0.28516,-0.32032 0,-0.1914 0,-0.40625 0.0156,-0.58203 l 0.45703,-5.17578 h 0.0547 c 0.20313,0.46875 1.16016,2.39844 1.50782,3.125 0.29687,0.6211 1.07812,2.08985 1.39062,2.66016 0.23047,0.41797 0.29688,0.52344 0.40235,0.52344 0.10937,0 0.17578,-0.10547 0.41796,-0.60547 l 2.85938,-5.85157 h 0.0273 l 0.56641,5.82422 c 0.0273,0.21485 0.0156,0.39063 -0.0547,0.40235 -0.0508,0.0156 -0.0781,0.0547 -0.0781,0.0977 0,0.0547 0.0508,0.0937 0.33593,0.1211 0.42969,0.0391 1.75391,0.0547 2.02344,0.0547 0.13281,0 0.24219,-0.043 0.24219,-0.10937 0,-0.0547 -0.0391,-0.082 -0.0937,-0.082 -0.12109,0 -0.43359,0 -0.76953,-0.10938 -0.48438,-0.16015 -0.56641,-0.78125 -0.60547,-1.18359 z m 3.30078,7.25781 c -0.23047,0.57813 -0.45703,0.98047 -0.9961,1.05079 -0.0937,0.0117 -0.26953,0.0273 -0.35156,0.0273 -0.0547,0 -0.10937,0.0391 -0.10937,0.0937 0,0.0664 0.082,0.0937 0.23046,0.0937 0.48438,0 1.07813,-0.0391 1.19922,-0.0391 0.13672,0 0.78516,0.0391 1.06641,0.0391 0.10937,0 0.17578,-0.0273 0.17578,-0.0937 0,-0.0547 -0.0273,-0.0937 -0.12109,-0.0937 h -0.10938 c -0.19922,0 -0.40234,-0.082 -0.40234,-0.3125 0,-0.20313 0.0664,-0.48438 0.17578,-0.76563 l 0.67187,-1.83593 c 0.0273,-0.0664 0.0703,-0.0937 0.1211,-0.0937 h 2.73828 c 0.0664,0 0.082,0.0117 0.10937,0.0664 l 1.0625,2.62891 c 0.082,0.19141 -0.0391,0.28516 -0.10546,0.3125 -0.0547,0.0273 -0.082,0.0273 -0.082,0.082 0,0.0664 0.1875,0.0664 0.41797,0.0781 0.82422,0.0273 1.69922,0.0273 1.875,0.0273 0.13672,0 0.26953,-0.0273 0.26953,-0.0937 0,-0.0664 -0.082,-0.0937 -0.14843,-0.0937 -0.1211,0 -0.29688,-0.0156 -0.47266,-0.0703 -0.25391,-0.0781 -0.57812,-0.22657 -1.01172,-1.25391 -0.72656,-1.73828 -2.6289,-6.47266 -2.84375,-6.95703 -0.12109,-0.25391 -0.16015,-0.41797 -0.28515,-0.41797 -0.0781,0 -0.13282,0.0664 -0.28125,0.44531 z m 1.71484,-2.40234 c -0.043,0 -0.0547,-0.0273 -0.043,-0.082 l 1.10938,-3.14063 c 0.0664,-0.17578 0.13281,-0.17578 0.19922,0 l 1.17578,3.14063 c 0.0117,0.0547 0.0117,0.082 -0.043,0.082 z m 9.07422,-4.47656 1.48437,0.0273 c 1.13282,0.0273 1.38672,0.28125 1.42969,0.63281 l 0.0117,0.1211 c 0.0117,0.16406 0.0391,0.20312 0.0937,0.20312 0.0547,0 0.10938,-0.0547 0.10938,-0.14843 0,-0.13282 0.0391,-0.95704 0.0391,-1.3086 0,-0.0664 0,-0.13281 -0.0508,-0.13281 -0.0547,0 -0.16407,0.0273 -0.33985,0.0508 -0.1875,0.0273 -0.45703,0.0547 -0.84765,0.0547 h -4.47657 c -0.13671,0 -0.59375,-0.0117 -0.93359,-0.0547 -0.32031,-0.0391 -0.44141,-0.13281 -0.52344,-0.13281 -0.043,0 -0.10937,0.14844 -0.12109,0.21484 -0.0273,0.0937 -0.25781,1.1211 -0.25781,1.24219 0,0.0664 0.0547,0.0937 0.082,0.0937 0.0547,0 0.0937,-0.0156 0.12109,-0.10938 0.0391,-0.0781 0.0547,-0.16015 0.1875,-0.36328 0.17578,-0.26953 0.46094,-0.35156 1.19922,-0.36328 l 1.71484,-0.0273 v 4.8125 c 0,1.10937 0,2.01172 -0.0547,2.48437 -0.0391,0.33594 -0.10938,0.5625 -0.35157,0.61719 -0.10546,0.0273 -0.24218,0.0547 -0.34765,0.0547 -0.0703,0 -0.0977,0.043 -0.0977,0.082 0,0.0664 0.0547,0.0937 0.19141,0.0937 0.35156,0 1.17187,-0.0391 1.22656,-0.0391 0.0664,0 0.82031,0.0391 1.46875,0.0391 0.13672,0 0.1875,-0.0391 0.1875,-0.0937 0,-0.0391 -0.0117,-0.0937 -0.0937,-0.0937 -0.10547,0 -0.375,-0.0273 -0.53906,-0.0547 -0.36328,-0.0547 -0.41797,-0.26953 -0.45703,-0.60547 -0.0547,-0.47265 -0.0547,-1.375 -0.0547,-2.48437 z m 6.37891,2.79297 c 0,-1.78125 0,-2.10547 0.0117,-2.46875 0.0273,-0.40625 0.0977,-0.56641 0.41797,-0.63282 0.13672,-0.0273 0.21875,-0.0273 0.29688,-0.0273 0.043,0 0.0977,-0.0547 0.0977,-0.0977 0,-0.0664 -0.0547,-0.0937 -0.1914,-0.0937 -0.36328,0 -1.13281,0.0273 -1.1875,0.0273 -0.0664,0 -0.8086,-0.0273 -1.19922,-0.0273 -0.13281,0 -0.1875,0.0273 -0.1875,0.0937 0,0.043 0.0391,0.0977 0.0937,0.0977 0.082,0 0.23047,0.0117 0.36328,0.0391 0.25781,0.0547 0.35156,0.23047 0.37891,0.6211 0.0273,0.36328 0.0273,0.6875 0.0273,2.46875 v 2.01953 c 0,1.10937 -0.0156,2.01172 -0.0703,2.48437 -0.0391,0.33594 -0.0781,0.55078 -0.3086,0.60547 -0.10937,0.0273 -0.25781,0.0547 -0.36328,0.0547 -0.0664,0 -0.0937,0.0547 -0.0937,0.0937 0,0.0664 0.0664,0.0937 0.1875,0.0937 0.36328,0 1.10547,-0.0391 1.17188,-0.0391 0.0547,0 0.82422,0.0391 1.48437,0.0391 0.13672,0 0.1875,-0.0391 0.1875,-0.0937 0,-0.0391 -0.0273,-0.0937 -0.0937,-0.0937 -0.10547,0 -0.36328,-0.0273 -0.53906,-0.0547 -0.35156,-0.0547 -0.39062,-0.26953 -0.42969,-0.60547 -0.0547,-0.47265 -0.0547,-1.375 -0.0547,-2.48437 z m 7.64453,5.5 c 0.76953,0 1.66015,-0.0664 2.14453,-0.25391 0.20312,-0.082 0.23047,-0.125 0.29687,-0.33984 0.1211,-0.39063 0.28516,-1.38672 0.28516,-1.46875 0,-0.082 -0.0547,-0.16407 -0.10938,-0.16407 -0.082,0 -0.0937,0.043 -0.12109,0.16407 -0.043,0.21484 -0.20312,0.69922 -0.46094,0.95703 -0.46875,0.47265 -1.0625,0.53906 -1.95312,0.53906 -2.53516,0 -4.27344,-1.95703 -4.27344,-4.15234 0,-1.16016 0.1875,-2.1836 1.0625,-2.99219 0.41797,-0.39453 1.14844,-0.79688 2.67188,-0.79688 1.05078,0 1.91406,0.28125 2.33203,0.63282 0.3125,0.24218 0.5,0.70312 0.5,1.14453 0,0.16406 0.0117,0.24609 0.0937,0.24609 0.0664,0 0.12109,-0.0703 0.13672,-0.24609 0.0117,-0.16016 0.0117,-0.79297 0.0273,-1.17188 0.0234,-0.41797 0.0508,-0.55078 0.0508,-0.64843 0,-0.0664 -0.0273,-0.1211 -0.14844,-0.1211 -0.39062,-0.0117 -0.76562,-0.0937 -1.21093,-0.17578 -0.58204,-0.0937 -1.25782,-0.13281 -1.72657,-0.13281 -1.82031,0 -2.90234,0.53906 -3.61718,1.22656 -1.05079,1.02344 -1.33204,2.35938 -1.33204,3.12891 0,1.09375 0.28125,2.39843 1.44141,3.39843 0.92969,0.8086 2.13281,1.22657 3.91016,1.22657 m 5.93359,0 c 0.64844,0 1.39063,-0.082 1.88672,-0.40625 0.85156,-0.55078 1.10937,-1.28125 1.10937,-1.95313 0,-0.98437 -0.5,-1.78125 -1.94531,-2.76562 l -0.33594,-0.23047 c -1.17187,-0.79297 -1.53515,-1.21094 -1.53515,-1.9375 0,-0.8125 0.71094,-1.24219 1.57812,-1.24219 1.0625,0 1.45313,0.42969 1.53516,0.56641 0.0664,0.12109 0.16406,0.42968 0.17578,0.5664 0.0117,0.0937 0.0273,0.14844 0.10938,0.14844 0.0781,0 0.0937,-0.082 0.0937,-0.25781 0,-0.78125 0.0508,-1.16016 0.0508,-1.21485 0,-0.0664 -0.0234,-0.0781 -0.1211,-0.0781 -0.0937,0 -0.1875,0 -0.41797,-0.0547 -0.28125,-0.0664 -0.7539,-0.13672 -1.22656,-0.13672 -1.5625,0 -2.6289,0.8125 -2.6289,2.16016 0,0.79687 0.41796,1.49609 1.69921,2.45312 l 0.53907,0.40625 c 1.05468,0.78125 1.49609,1.17188 1.49609,1.9961 0,0.86328 -0.60547,1.52344 -1.77734,1.52344 -0.79688,0 -1.6875,-0.29688 -1.875,-1.13282 -0.0391,-0.16406 -0.0391,-0.32422 -0.0391,-0.41797 0,-0.0977 -0.043,-0.13671 -0.10937,-0.13671 -0.0664,0 -0.0937,0.0664 -0.0937,0.1914 -0.0156,0.1875 -0.0703,0.64453 -0.0703,1.21094 0,0.30859 0.0156,0.35156 0.17578,0.43359 0.48828,0.22657 1.17578,0.3086 1.72656,0.3086 m 5.41016,-0.16016 c 0,0.25391 -0.0977,0.56641 -0.32422,0.95703 -0.0273,0.0547 -0.0937,0.13281 -0.0937,0.1875 0,0.0547 0.0508,0.0937 0.0937,0.0937 0.0508,0 0.12109,-0.0547 0.17187,-0.12109 0.37891,-0.41797 0.73047,-1.13281 0.86328,-1.44141 0.0703,-0.17578 0.13672,-0.41797 0.13672,-0.52734 0,-0.1211 -0.0547,-0.3086 -0.23047,-0.57813 -0.13281,-0.21875 -0.17578,-0.25781 -0.24218,-0.25781 -0.35157,0 -0.83594,0.35156 -0.83594,0.73047 0,0.16016 0.46094,0.33594 0.46094,0.95703 m 9.11328,-6.27344 c 0,-2.10156 0,-2.48047 0.0273,-2.91015 0.0274,-0.47266 0.13281,-0.70313 0.5,-0.76953 0.16016,-0.0273 0.24219,-0.0391 0.33594,-0.0391 0.0547,0 0.10937,-0.0273 0.10937,-0.082 0,-0.082 -0.0703,-0.10937 -0.21484,-0.10937 -0.40625,0 -1.25781,0.0391 -1.32422,0.0391 -0.0664,0 -0.91797,-0.0391 -1.36328,-0.0391 -0.14453,0 -0.21484,0.0273 -0.21484,0.10937 0,0.0547 0.0547,0.082 0.10937,0.082 0.0937,0 0.26953,0.0117 0.41797,0.0508 0.29688,0.0703 0.42969,0.29688 0.45703,0.75782 0.0274,0.42968 0.0274,0.80859 0.0274,2.91015 v 2.375 c 0,1.29297 0,2.35938 -0.0664,2.92578 -0.0547,0.39063 -0.12109,0.6875 -0.39063,0.74219 -0.12109,0.0273 -0.28515,0.0547 -0.40625,0.0547 -0.0781,0 -0.10546,0.0391 -0.10546,0.082 0,0.0781 0.0664,0.10547 0.21484,0.10547 0.40234,0 1.25391,-0.0391 1.32031,-0.0391 0.0664,0 0.91797,0.0391 1.66016,0.0391 0.14844,0 0.21484,-0.0391 0.21484,-0.10547 0,-0.043 -0.0273,-0.082 -0.10937,-0.082 -0.1211,0 -0.41797,-0.0273 -0.60547,-0.0547 -0.40625,-0.0547 -0.48438,-0.35156 -0.52735,-0.74219 -0.0664,-0.5664 -0.0664,-1.63281 -0.0664,-2.92578 z m 4.51953,-0.6875 c 0.36328,0.40625 1.69922,1.8086 3.07422,3.25 1.2539,1.3086 2.96484,2.9961 3.08594,3.10157 0.66015,0.60937 0.78515,0.70312 0.90234,0.70312 0.082,0 0.0977,-0.0664 0.0977,-0.82422 l 0.0234,-6.71484 c 0,-0.6875 0.0274,-0.91797 0.41797,-0.9961 0.13672,-0.0273 0.23047,-0.0273 0.28516,-0.0273 0.082,0 0.13281,-0.0703 0.13281,-0.10937 0,-0.0664 -0.0937,-0.082 -0.21484,-0.082 -0.48438,0 -0.875,0.0273 -1.01172,0.0273 -0.13281,0 -0.69922,-0.0273 -1.23828,-0.0273 -0.13672,0 -0.23047,0.0156 -0.23047,0.082 0,0.0391 0.0156,0.10937 0.0937,0.10937 0.0937,0 0.36719,0.0117 0.58203,0.0508 0.36328,0.0703 0.42969,0.32422 0.44531,1.06641 l 0.1211,5.74609 c -0.36329,-0.3789 -1.63282,-1.73828 -2.80469,-2.95312 -1.83594,-1.89063 -3.5625,-3.72266 -3.75,-3.91016 -0.1211,-0.12109 -0.32422,-0.35156 -0.45703,-0.35156 -0.0977,0 -0.16407,0.12109 -0.16407,0.57812 v 6.57032 c 0,1.03515 -0.0391,1.34765 -0.33593,1.42578 -0.17578,0.0547 -0.39063,0.0703 -0.48438,0.0703 -0.0547,0 -0.0976,0.0391 -0.0976,0.0937 0,0.082 0.0703,0.0937 0.1914,0.0937 0.53906,0 1.03906,-0.0391 1.14453,-0.0391 0.10938,0 0.58203,0.0391 1.25391,0.0391 0.13672,0 0.21875,-0.0273 0.21875,-0.0937 0,-0.0547 -0.043,-0.0937 -0.0977,-0.0937 -0.10547,0 -0.375,-0.0156 -0.59375,-0.0703 -0.32031,-0.0781 -0.42968,-0.36328 -0.45703,-1.30469 z m 10.26172,3.64063 c 0,1.10937 0,2.01172 -0.0664,2.48437 -0.0547,0.33594 -0.082,0.5625 -0.3125,0.60547 -0.10547,0.0117 -0.25781,0.0547 -0.36328,0.0547 -0.0664,0 -0.0937,0.0547 -0.0937,0.0937 0,0.0664 0.0664,0.0937 0.1875,0.0937 0.36328,0 1.10547,-0.0391 1.17188,-0.0391 0.0547,0 0.82421,0.0391 1.48437,0.0391 0.13672,0 0.1875,-0.0391 0.1875,-0.0937 0,-0.0391 -0.0273,-0.0937 -0.0937,-0.0937 -0.10547,0 -0.36328,-0.0273 -0.53906,-0.0547 -0.32422,-0.0547 -0.39063,-0.26953 -0.42969,-0.60547 -0.0547,-0.44531 -0.0547,-1.35156 -0.0547,-2.48437 v -0.91406 c 0,-0.082 0.0117,-0.10938 0.082,-0.10938 0.19922,0 1.60157,-0.0117 1.89844,0.0273 0.36328,0.0547 0.55469,0.20313 0.60938,0.36329 0.0508,0.13671 0.0664,0.29687 0.0781,0.41796 0,0.0547 0.0156,0.10938 0.082,0.10938 0.082,0 0.10938,-0.12109 0.10938,-0.23047 0,-0.082 0.0117,-0.53906 0.0391,-0.76953 0.0273,-0.375 0.10938,-0.56641 0.10938,-0.63281 0,-0.0547 -0.0156,-0.0937 -0.0664,-0.0937 -0.043,0 -0.0977,0.0547 -0.15234,0.12109 -0.10547,0.13281 -0.26954,0.17578 -0.55079,0.20313 -0.16015,0.0117 -0.33593,0.0117 -0.53906,0.0117 L 587.48437,225 c -0.082,0 -0.082,-0.043 -0.082,-0.10938 v -3.1289 c 0,-0.0937 0.0274,-0.1211 0.0937,-0.1211 l 1.94141,0.0273 c 0.45703,0 0.74219,0.1875 0.80859,0.33594 0.0703,0.14843 0.10938,0.33984 0.10938,0.43359 0,0.0781 0.0391,0.13281 0.0937,0.13281 0.0547,0 0.0937,-0.0664 0.10937,-0.12109 0.0234,-0.13281 0.0391,-0.64453 0.0508,-0.75391 0.043,-0.32422 0.0977,-0.46094 0.0977,-0.53906 0,-0.0547 -0.0273,-0.10938 -0.082,-0.10938 -0.043,0 -0.0937,0.0547 -0.16016,0.0664 -0.10937,0.043 -0.3125,0.043 -0.54297,0.0547 -0.26953,0.0156 -2.84375,0 -3.07421,0 -0.0664,0 -0.8086,-0.0273 -1.34766,-0.0273 -0.13281,0 -0.1875,0.0273 -0.1875,0.0937 0,0.043 0.0547,0.0977 0.0937,0.0977 0.10937,0 0.30859,0.0117 0.40625,0.0273 0.39062,0.0508 0.45703,0.24219 0.48437,0.63282 0.0273,0.36328 0.0273,0.6875 0.0273,2.46875 z m 5.52734,-1.02344 c 0,2.0625 1.39063,4.50391 4.64063,4.50391 2.85547,0 4.75781,-2.11719 4.75781,-4.67969 0,-2.66797 -2.02344,-4.30078 -4.69141,-4.30078 -3.27734,0 -4.70703,2.6289 -4.70703,4.47656 m 1.22656,-0.30859 c 0,-2.4961 1.42969,-3.73828 3.41407,-3.73828 1.87109,0 3.54297,1.44531 3.54297,4.19531 0,3.3164 -2.14063,3.88281 -3.20704,3.88281 -2.14453,0 -3.75,-1.67187 -3.75,-4.33984 m 10.31641,1.33203 c 0,1.10937 0,2.01172 -0.0664,2.48437 -0.0547,0.33594 -0.082,0.55078 -0.3125,0.60547 -0.10546,0.0273 -0.2539,0.0547 -0.36328,0.0547 -0.0664,0 -0.0937,0.0547 -0.0937,0.0937 0,0.0664 0.0664,0.0937 0.1875,0.0937 0.36719,0 1.16016,-0.0391 1.17578,-0.0391 0.0547,0 0.8086,0.0391 1.45313,0.0391 0.13672,0 0.19141,-0.0391 0.19141,-0.0937 0,-0.0391 -0.0117,-0.0937 -0.0937,-0.0937 -0.10938,0 -0.36329,-0.0273 -0.52735,-0.0547 -0.36328,-0.0547 -0.42969,-0.26953 -0.47265,-0.60547 -0.0547,-0.47265 -0.0547,-1.36328 -0.0547,-2.46875 v -0.26953 c 0,-0.0703 0.0273,-0.0937 0.082,-0.0937 l 1.51172,0.0234 c 0.082,0 0.10547,0.0156 0.16015,0.0703 0.25782,0.3086 0.78125,1.05078 1.28125,1.67188 0.67579,0.86328 1.10547,1.41406 1.61719,1.68359 0.29688,0.16406 0.59375,0.23047 1.26953,0.23047 h 0.74219 c 0.21484,0 0.28125,-0.0273 0.28125,-0.0937 0,-0.0391 -0.0391,-0.0937 -0.10547,-0.0937 -0.0703,0 -0.1914,0 -0.41797,-0.043 -0.29687,-0.0391 -0.6875,-0.14844 -1.32422,-0.79297 -0.6875,-0.71484 -1.50781,-1.7539 -2.48046,-2.96875 1.10546,-0.9414 1.45703,-1.76562 1.45703,-2.61328 0,-0.79687 -0.52735,-1.35156 -0.82422,-1.56641 -0.61719,-0.42968 -1.45313,-0.5 -2.21094,-0.5 -0.36328,0 -1.35937,0.0273 -1.48047,0.0273 -0.0703,0 -0.86328,-0.0273 -1.40625,-0.0273 -0.13281,0 -0.1875,0.0273 -0.1875,0.0937 0,0.043 0.0547,0.0977 0.0937,0.0977 0.10938,0 0.3125,0.0117 0.40625,0.0273 0.39063,0.0508 0.45703,0.24219 0.48438,0.63282 0.0273,0.36328 0.0273,0.6875 0.0273,2.46875 z m 1.02344,-4.73047 c 0,-0.0703 0.043,-0.10938 0.0977,-0.13672 0.1211,-0.0273 0.4961,-0.0664 0.84766,-0.0664 1.26953,0 2.05078,0.82422 2.05078,2.25 0,0.87891 -0.3125,1.48438 -0.71484,1.75391 -0.28516,0.1875 -0.60547,0.20313 -0.89063,0.20313 -0.52734,0 -1.13281,-0.082 -1.30859,-0.17579 -0.0547,-0.0391 -0.082,-0.082 -0.082,-0.14843 z m 15.77734,-0.46094 c -0.0273,-0.21484 -0.0937,-0.30859 -0.17187,-0.30859 -0.082,0 -0.13672,0.082 -0.19141,0.1875 l -3.44922,7.10547 -3.58984,-7.11719 c -0.0664,-0.13672 -0.16016,-0.17578 -0.24219,-0.17578 -0.0664,0 -0.12109,0.082 -0.13672,0.20312 l -0.85937,7.48438 c -0.0547,0.42969 -0.0703,0.84765 -0.46094,0.91406 -0.17578,0.0273 -0.25391,0.043 -0.35156,0.043 -0.0664,0 -0.1211,0.0391 -0.1211,0.082 0,0.0781 0.082,0.10547 0.20313,0.10547 0.32422,0 0.89062,-0.0391 1,-0.0391 0.0937,0 0.66015,0.0391 1.10547,0.0391 0.13281,0 0.21484,-0.0273 0.21484,-0.10547 0,-0.043 -0.0547,-0.082 -0.0937,-0.082 -0.082,0 -0.25781,-0.0156 -0.45703,-0.0703 -0.17969,-0.0391 -0.28516,-0.14844 -0.28516,-0.32032 0,-0.1914 0,-0.40625 0.0117,-0.58203 l 0.46094,-5.17578 h 0.0508 c 0.20313,0.46875 1.16016,2.39844 1.51172,3.125 0.29687,0.6211 1.08203,2.08985 1.39062,2.66016 0.23047,0.41797 0.29688,0.52344 0.40235,0.52344 0.10937,0 0.17578,-0.10547 0.41797,-0.60547 l 2.85937,-5.85157 h 0.0274 l 0.5664,5.82422 c 0.0274,0.21485 0.0156,0.39063 -0.0547,0.40235 -0.0508,0.0156 -0.0781,0.0547 -0.0781,0.0977 0,0.0547 0.0547,0.0937 0.33594,0.1211 0.42968,0.0391 1.7539,0.0547 2.02343,0.0547 0.13282,0 0.24219,-0.043 0.24219,-0.10937 0,-0.0547 -0.0391,-0.082 -0.0937,-0.082 -0.12109,0 -0.43359,0 -0.76953,-0.10938 -0.48437,-0.16015 -0.56641,-0.78125 -0.60547,-1.18359 z m 3.30469,7.25781 c -0.22656,0.57813 -0.45703,0.98047 -0.99609,1.05079 -0.0937,0.0117 -0.26954,0.0273 -0.35157,0.0273 -0.0547,0 -0.10937,0.0391 -0.10937,0.0937 0,0.0664 0.082,0.0937 0.23047,0.0937 0.48437,0 1.07812,-0.0391 1.19922,-0.0391 0.13671,0 0.78515,0.0391 1.0664,0.0391 0.10938,0 0.17578,-0.0273 0.17578,-0.0937 0,-0.0547 -0.0273,-0.0937 -0.12109,-0.0937 h -0.10938 c -0.20312,0 -0.40234,-0.082 -0.40234,-0.3125 0,-0.20313 0.0664,-0.48438 0.17578,-0.76563 l 0.67188,-1.83593 c 0.0273,-0.0664 0.0664,-0.0937 0.12109,-0.0937 h 2.73828 c 0.0664,0 0.082,0.0117 0.10938,0.0664 l 1.0625,2.62891 c 0.082,0.19141 -0.0391,0.28516 -0.10547,0.3125 -0.0547,0.0273 -0.082,0.0273 -0.082,0.082 0,0.0664 0.1875,0.0664 0.41797,0.0781 0.82421,0.0273 1.69921,0.0273 1.875,0.0273 0.13281,0 0.26953,-0.0273 0.26953,-0.0937 0,-0.0664 -0.082,-0.0937 -0.14844,-0.0937 -0.12109,0 -0.29688,-0.0156 -0.47266,-0.0703 -0.25781,-0.0781 -0.57812,-0.22657 -1.01172,-1.25391 -0.72656,-1.73828 -2.6289,-6.47266 -2.84375,-6.95703 -0.12109,-0.25391 -0.16406,-0.41797 -0.28515,-0.41797 -0.0781,0 -0.13281,0.0664 -0.28125,0.44531 z m 1.71484,-2.40234 c -0.043,0 -0.0547,-0.0273 -0.043,-0.082 l 1.10547,-3.14063 c 0.0703,-0.17578 0.13672,-0.17578 0.20313,0 l 1.17187,3.14063 c 0.0156,0.0547 0.0156,0.082 -0.0391,0.082 z m 9.07422,-4.47656 1.48438,0.0273 c 1.13281,0.0273 1.38672,0.28125 1.42968,0.63281 l 0.0117,0.1211 c 0.0156,0.16406 0.043,0.20312 0.0937,0.20312 0.0547,0 0.10938,-0.0547 0.10938,-0.14843 0,-0.13282 0.0391,-0.95704 0.0391,-1.3086 0,-0.0664 0,-0.13281 -0.0547,-0.13281 -0.0508,0 -0.16015,0.0273 -0.33593,0.0508 -0.1875,0.0273 -0.45704,0.0547 -0.84766,0.0547 h -4.48047 c -0.13281,0 -0.58984,-0.0117 -0.92969,-0.0547 -0.32422,-0.0391 -0.44531,-0.13281 -0.52343,-0.13281 -0.043,0 -0.10938,0.14844 -0.1211,0.21484 -0.0273,0.0937 -0.25781,1.1211 -0.25781,1.24219 0,0.0664 0.0547,0.0937 0.082,0.0937 0.0508,0 0.0937,-0.0156 0.12109,-0.10938 0.0391,-0.0781 0.0547,-0.16015 0.1875,-0.36328 0.17579,-0.26953 0.46094,-0.35156 1.19922,-0.36328 l 1.71485,-0.0273 v 4.8125 c 0,1.10937 0,2.01172 -0.0547,2.48437 -0.0391,0.33594 -0.10938,0.5625 -0.35156,0.61719 -0.10547,0.0273 -0.24219,0.0547 -0.35157,0.0547 -0.0664,0 -0.0937,0.043 -0.0937,0.082 0,0.0664 0.0547,0.0937 0.19141,0.0937 0.34766,0 1.17188,-0.0391 1.22656,-0.0391 0.0664,0 0.82032,0.0391 1.46875,0.0391 0.13672,0 0.1875,-0.0391 0.1875,-0.0937 0,-0.0391 -0.0117,-0.0937 -0.0937,-0.0937 -0.10547,0 -0.375,-0.0273 -0.53906,-0.0547 -0.36328,-0.0547 -0.41797,-0.26953 -0.45703,-0.60547 -0.0547,-0.47265 -0.0547,-1.375 -0.0547,-2.48437 z m 6.37891,2.79297 c 0,-1.78125 0,-2.10547 0.0117,-2.46875 0.0273,-0.40625 0.0937,-0.56641 0.41797,-0.63282 0.13671,-0.0273 0.21484,-0.0273 0.29687,-0.0273 0.043,0 0.0937,-0.0547 0.0937,-0.0977 0,-0.0664 -0.0508,-0.0937 -0.1875,-0.0937 -0.36328,0 -1.13281,0.0273 -1.1875,0.0273 -0.0664,0 -0.80859,-0.0273 -1.19922,-0.0273 -0.13672,0 -0.1875,0.0273 -0.1875,0.0937 0,0.043 0.0391,0.0977 0.0937,0.0977 0.082,0 0.23047,0.0117 0.36328,0.0391 0.25782,0.0547 0.35157,0.23047 0.37891,0.6211 0.0273,0.36328 0.0273,0.6875 0.0273,2.46875 v 2.01953 c 0,1.10937 -0.0156,2.01172 -0.0703,2.48437 -0.0391,0.33594 -0.0781,0.55078 -0.30859,0.60547 -0.10938,0.0273 -0.25782,0.0547 -0.36328,0.0547 -0.0703,0 -0.0977,0.0547 -0.0977,0.0937 0,0.0664 0.0703,0.0937 0.19141,0.0937 0.36328,0 1.10546,-0.0391 1.17187,-0.0391 0.0547,0 0.82422,0.0391 1.48438,0.0391 0.13671,0 0.1875,-0.0391 0.1875,-0.0937 0,-0.0391 -0.0274,-0.0937 -0.0937,-0.0937 -0.10938,0 -0.36329,-0.0273 -0.53907,-0.0547 -0.35156,-0.0547 -0.39062,-0.26953 -0.42968,-0.60547 -0.0547,-0.47265 -0.0547,-1.375 -0.0547,-2.48437 z m 7.64453,5.5 c 0.76953,0 1.66016,-0.0664 2.14453,-0.25391 0.20313,-0.082 0.23047,-0.125 0.29688,-0.33984 0.12109,-0.39063 0.28125,-1.38672 0.28125,-1.46875 0,-0.082 -0.0508,-0.16407 -0.10547,-0.16407 -0.082,0 -0.0937,0.043 -0.1211,0.16407 -0.043,0.21484 -0.20312,0.69922 -0.46093,0.95703 -0.47266,0.47265 -1.0625,0.53906 -1.95313,0.53906 -2.53516,0 -4.27734,-1.95703 -4.27734,-4.15234 0,-1.16016 0.1914,-2.1836 1.0664,-2.99219 0.41797,-0.39453 1.14844,-0.79688 2.67188,-0.79688 1.05078,0 1.91406,0.28125 2.33203,0.63282 0.30859,0.24218 0.5,0.70312 0.5,1.14453 0,0.16406 0.0117,0.24609 0.0937,0.24609 0.0664,0 0.12109,-0.0703 0.13281,-0.24609 0.0156,-0.16016 0.0156,-0.79297 0.0274,-1.17188 0.0273,-0.41797 0.0547,-0.55078 0.0547,-0.64843 0,-0.0664 -0.0273,-0.1211 -0.14843,-0.1211 -0.39063,-0.0117 -0.76954,-0.0937 -1.21094,-0.17578 -0.58203,-0.0937 -1.25391,-0.13281 -1.72656,-0.13281 -1.82032,0 -2.90235,0.53906 -3.61719,1.22656 -1.05078,1.02344 -1.33203,2.35938 -1.33203,3.12891 0,1.09375 0.28125,2.39843 1.4414,3.39843 0.92969,0.8086 2.12891,1.22657 3.91016,1.22657 m 5.93359,0 c 0.64844,0 1.39063,-0.082 1.88672,-0.40625 0.85156,-0.55078 1.10547,-1.28125 1.10547,-1.95313 0,-0.98437 -0.49609,-1.78125 -1.94141,-2.76562 l -0.33593,-0.23047 c -1.17188,-0.79297 -1.53516,-1.21094 -1.53516,-1.9375 0,-0.8125 0.71484,-1.24219 1.57422,-1.24219 1.06641,0 1.45703,0.42969 1.53906,0.56641 0.0664,0.12109 0.16016,0.42968 0.17578,0.5664 0.0117,0.0937 0.0274,0.14844 0.10547,0.14844 0.082,0 0.0977,-0.082 0.0977,-0.25781 0,-0.78125 0.0547,-1.16016 0.0547,-1.21485 0,-0.0664 -0.0274,-0.0781 -0.125,-0.0781 -0.0937,0 -0.1875,0 -0.41797,-0.0547 -0.28125,-0.0664 -0.75391,-0.13672 -1.22657,-0.13672 -1.5625,0 -2.6289,0.8125 -2.6289,2.16016 0,0.79687 0.41797,1.49609 1.69922,2.45312 l 0.53906,0.40625 c 1.05078,0.78125 1.49609,1.17188 1.49609,1.9961 0,0.86328 -0.60547,1.52344 -1.77734,1.52344 -0.79688,0 -1.6875,-0.29688 -1.875,-1.13282 -0.043,-0.16406 -0.043,-0.32422 -0.043,-0.41797 0,-0.0977 -0.0391,-0.13671 -0.10547,-0.13671 -0.0664,0 -0.0937,0.0664 -0.0937,0.1914 -0.0156,0.1875 -0.0703,0.64453 -0.0703,1.21094 0,0.30859 0.0156,0.35156 0.17578,0.43359 0.48828,0.22657 1.17578,0.3086 1.72656,0.3086"
     id="path2251" /><path
     style="fill:#211e1e;fill-opacity:1;fill-rule:nonzero;stroke:none"
     d="m 525.88281,209.71875 c 0,1.29687 0,2.36328 -0.0664,2.92578 -0.0547,0.39453 -0.1211,0.69141 -0.39063,0.74219 -0.12109,0.0273 -0.28516,0.0547 -0.40625,0.0547 -0.0781,0 -0.10547,0.0391 -0.10547,0.082 0,0.082 0.0664,0.10937 0.21485,0.10937 0.40234,0 1.2539,-0.043 1.32031,-0.043 0.0703,0 0.91797,0.043 1.66015,0.043 0.14844,0 0.21485,-0.043 0.21485,-0.10937 0,-0.043 -0.0273,-0.082 -0.10938,-0.082 -0.12109,0 -0.41797,-0.0273 -0.60547,-0.0547 -0.40234,-0.0508 -0.48437,-0.34766 -0.52734,-0.74219 -0.0664,-0.5625 -0.0664,-1.62891 -0.0664,-2.92578 v -1.14453 c 0,-0.0937 0.0273,-0.1211 0.0937,-0.1211 0.23047,0 1.69922,0 2.03907,0.0391 0.41797,0.0547 0.63281,0.29687 0.69922,0.48437 0.0547,0.16406 0.0664,0.35156 0.082,0.48828 0,0.0664 0.0273,0.1211 0.0937,0.1211 0.0937,0 0.0937,-0.13672 0.0937,-0.25782 0,-0.0937 0.0273,-0.63281 0.0547,-0.90234 0.0391,-0.44531 0.10938,-0.67578 0.10938,-0.75391 0,-0.0703 -0.0156,-0.10937 -0.0703,-0.10937 -0.0508,0 -0.0937,0.0664 -0.14844,0.13281 -0.12109,0.17969 -0.29297,0.21875 -0.61719,0.2461 -0.1914,0.0117 -0.3789,0.0117 -0.60937,0.0117 l -1.72657,0.0156 c -0.0781,0 -0.0937,-0.043 -0.0937,-0.12109 V 204.125 c 0,-0.10938 0.043,-0.14844 0.1211,-0.14844 l 2.07812,0.0391 c 0.52735,0.0117 0.83594,0.25782 0.91797,0.42969 0.0781,0.17969 0.1211,0.40625 0.1211,0.51563 0,0.0937 0.0273,0.16015 0.0937,0.16015 0.0664,0 0.0937,-0.0781 0.10546,-0.14843 0.0273,-0.16016 0.0547,-0.75391 0.0703,-0.89063 0.0391,-0.375 0.10547,-0.53906 0.10547,-0.63281 0,-0.0664 -0.0234,-0.1211 -0.0781,-0.1211 -0.0547,0 -0.10937,0.0547 -0.19141,0.082 -0.12109,0.0391 -0.33593,0.0391 -0.58984,0.0547 -0.3125,0.0117 -3.05078,0 -3.32031,0 l -0.55078,-0.0156 c -0.29688,-0.0117 -0.66016,-0.0117 -0.97266,-0.0117 -0.14844,0 -0.21484,0.0273 -0.21484,0.10547 0,0.0547 0.0547,0.082 0.10937,0.082 0.1211,0 0.34766,0.0117 0.45703,0.0391 0.44532,0.0977 0.55078,0.3125 0.57813,0.76953 0.0273,0.42969 0.0273,0.8086 0.0273,2.91407 z m 5.90625,2.64453 c -0.22656,0.57813 -0.45703,0.98438 -0.99609,1.05078 -0.0937,0.0156 -0.26953,0.0273 -0.35156,0.0273 -0.0547,0 -0.10938,0.0391 -0.10938,0.0937 0,0.0703 0.082,0.0977 0.23047,0.0977 0.48437,0 1.07812,-0.043 1.20312,-0.043 0.13282,0 0.78125,0.043 1.0625,0.043 0.10938,0 0.17579,-0.0273 0.17579,-0.0977 0,-0.0547 -0.0274,-0.0937 -0.1211,-0.0937 h -0.10937 c -0.19922,0 -0.40235,-0.082 -0.40235,-0.3086 0,-0.20312 0.0664,-0.48828 0.17578,-0.76953 l 0.67188,-1.83594 c 0.0273,-0.0664 0.0664,-0.0937 0.12109,-0.0937 h 2.73828 c 0.0664,0 0.082,0.0156 0.10938,0.0703 l 1.0625,2.6289 c 0.082,0.1875 -0.0391,0.28125 -0.10547,0.3086 -0.0547,0.0273 -0.082,0.0273 -0.082,0.082 0,0.0664 0.1875,0.0664 0.41797,0.082 0.82422,0.0273 1.69922,0.0273 1.875,0.0273 0.13672,0 0.26953,-0.0273 0.26953,-0.0977 0,-0.0664 -0.082,-0.0937 -0.14844,-0.0937 -0.12109,0 -0.29687,-0.0117 -0.47265,-0.0664 -0.25391,-0.082 -0.57813,-0.23047 -1.01172,-1.25391 -0.72657,-1.73828 -2.62891,-6.47265 -2.84375,-6.95703 -0.1211,-0.25781 -0.16407,-0.41797 -0.28516,-0.41797 -0.0781,0 -0.13281,0.0664 -0.28125,0.44141 z m 1.71485,-2.39844 c -0.043,0 -0.0547,-0.0273 -0.043,-0.082 l 1.10547,-3.14453 c 0.0703,-0.17578 0.13671,-0.17578 0.20312,0 l 1.17578,3.14453 c 0.0117,0.0547 0.0117,0.082 -0.043,0.082 z m 11.35156,3.8125 c 0.76953,0 1.66015,-0.0664 2.14453,-0.2539 0.20312,-0.082 0.23047,-0.1211 0.29687,-0.33594 0.1211,-0.39063 0.28516,-1.39063 0.28516,-1.47266 0,-0.0781 -0.0547,-0.16015 -0.10937,-0.16015 -0.0781,0 -0.0937,0.0391 -0.1211,0.16015 -0.0391,0.21875 -0.20312,0.70313 -0.45703,0.95703 -0.47266,0.47266 -1.06641,0.54297 -1.95703,0.54297 -2.53516,0 -4.27344,-1.95703 -4.27344,-4.15625 0,-1.16015 0.1875,-2.18359 1.06641,-2.99218 0.41797,-0.39063 1.14453,-0.79688 2.66797,-0.79688 1.05078,0 1.91406,0.28516 2.33203,0.63281 0.3125,0.24219 0.5,0.70313 0.5,1.14844 0,0.16016 0.0117,0.24219 0.0937,0.24219 0.0703,0 0.12109,-0.0664 0.13672,-0.24219 0.0117,-0.16406 0.0117,-0.79687 0.0273,-1.17187 0.0273,-0.41797 0.0508,-0.55469 0.0508,-0.64844 0,-0.0664 -0.0234,-0.1211 -0.14453,-0.1211 -0.39453,-0.0156 -0.76953,-0.0937 -1.21484,-0.17578 -0.58203,-0.0937 -1.25391,-0.13672 -1.72657,-0.13672 -1.82031,0 -2.89843,0.53907 -3.61328,1.22657 -1.05468,1.02734 -1.33593,2.36328 -1.33593,3.1289 0,1.09375 0.28125,2.40235 1.4414,3.39844 0.92969,0.80859 2.13281,1.22656 3.91016,1.22656 m 4.60156,-3.8125 c 0,1.67188 0.45703,2.46485 1.03516,3.00391 0.83593,0.78516 2.07812,0.80859 2.46875,0.80859 0.70312,0 1.61718,-0.0937 2.48047,-0.83593 0.94531,-0.8086 1.10546,-2.19532 1.10546,-3.4375 v -1.22657 c 0,-1.78125 -0.0117,-2.10547 0.0156,-2.46875 0.0273,-0.375 0.0937,-0.5664 0.41797,-0.63281 0.14844,-0.0273 0.21484,-0.0273 0.29687,-0.0273 0.0547,0 0.0937,-0.0547 0.0937,-0.0937 0,-0.0664 -0.0547,-0.0937 -0.1875,-0.0937 -0.35156,0 -0.91797,0.0273 -1,0.0273 -0.0664,0 -0.7539,-0.0273 -1.28125,-0.0273 -0.13281,0 -0.1875,0.0273 -0.1875,0.0937 0,0.0391 0.0391,0.0937 0.0937,0.0937 0.10938,0 0.3086,0.0156 0.40625,0.0273 0.39063,0.0547 0.45703,0.26953 0.47266,0.63281 0.0117,0.36328 0.0234,0.6875 0.0234,2.46875 v 1.44141 c 0,1.17578 -0.1211,2.11719 -0.67188,2.78125 -0.40625,0.48437 -1.10547,0.80859 -1.83594,0.80859 -0.67187,0 -1.18359,-0.0937 -1.76562,-0.62109 -0.51172,-0.46094 -0.875,-1.14844 -0.875,-2.80469 v -1.60547 c 0,-1.78125 0,-2.10547 0.0234,-2.46875 0.0273,-0.375 0.0976,-0.57812 0.40625,-0.63281 0.14843,-0.0273 0.21484,-0.0273 0.29687,-0.0273 0.0547,0 0.10938,-0.0547 0.10938,-0.0937 0,-0.0664 -0.0703,-0.0937 -0.20313,-0.0937 -0.35156,0 -1.09375,0.0273 -1.19922,0.0273 -0.10937,0 -0.82422,-0.0273 -1.36328,-0.0273 -0.13672,0 -0.1875,0.0273 -0.1875,0.0937 0,0.0391 0.0508,0.0937 0.0937,0.0937 0.10938,0 0.3086,0.0156 0.40235,0.0273 0.39062,0.0547 0.46093,0.26953 0.48828,0.63281 0.0273,0.36328 0.0273,0.6875 0.0273,2.46875 z m 11.21875,-1.6875 c 0,-1.78125 0,-2.10547 0.0117,-2.46875 0.0273,-0.40234 0.0937,-0.57812 0.44531,-0.64453 0.13672,-0.0156 0.3125,-0.0273 0.39063,-0.0273 0.043,0 0.0937,-0.043 0.0937,-0.082 0,-0.0664 -0.0664,-0.0937 -0.1875,-0.0937 -0.36328,0 -1.25391,0.0273 -1.3086,0.0273 -0.0664,0 -0.80859,-0.0273 -1.34765,-0.0273 -0.13282,0 -0.1875,0.0273 -0.1875,0.0937 0,0.0391 0.0547,0.0937 0.0937,0.0937 0.10547,0 0.30859,0.0156 0.40234,0.0273 0.39453,0.0547 0.46094,0.24219 0.48828,0.63281 0.0234,0.36328 0.0234,0.6875 0.0234,2.46875 v 2.02344 c 0,1.10547 0,2.00781 -0.0664,2.48047 -0.0508,0.33594 -0.0781,0.55469 -0.30859,0.60547 -0.10938,0.0273 -0.25781,0.0547 -0.36328,0.0547 -0.0703,0 -0.0977,0.0547 -0.0977,0.0937 0,0.0703 0.0703,0.0977 0.19141,0.0977 0.1875,0 0.44531,-0.0156 0.6875,-0.0273 0.23047,-0.0156 0.42969,-0.0156 0.48437,-0.0156 0.35157,0 0.75782,0.0156 1.29688,0.0273 0.55078,0.0273 1.21094,0.0391 2.0625,0.0391 0.63281,0 0.67187,-0.0391 0.7539,-0.30859 0.0937,-0.33594 0.17579,-1.02344 0.17579,-1.14454 0,-0.12109 -0.0274,-0.17578 -0.082,-0.17578 -0.0664,0 -0.10546,0.0664 -0.12109,0.14844 -0.0391,0.22656 -0.13281,0.46875 -0.28125,0.64453 -0.28516,0.33985 -0.80859,0.35156 -1.42969,0.35156 -0.92968,0 -1.39062,-0.082 -1.57812,-0.26953 -0.21485,-0.20312 -0.24219,-0.89062 -0.24219,-2.57422 z m 7.64453,-2.79297 1.48438,0.0273 c 1.13281,0.0273 1.39062,0.28515 1.42968,0.63281 l 0.0117,0.125 c 0.0156,0.16016 0.043,0.19922 0.0937,0.19922 0.0547,0 0.10938,-0.0508 0.10938,-0.14844 0,-0.13281 0.0391,-0.95703 0.0391,-1.30469 0,-0.0703 0,-0.13671 -0.0508,-0.13671 -0.0547,0 -0.16406,0.0273 -0.33984,0.0547 -0.1875,0.0273 -0.45704,0.0547 -0.84766,0.0547 h -4.47656 c -0.13672,0 -0.59375,-0.0156 -0.9336,-0.0547 -0.32031,-0.043 -0.4414,-0.13672 -0.52343,-0.13672 -0.0391,0 -0.10938,0.14844 -0.1211,0.21875 -0.0273,0.0937 -0.25781,1.11719 -0.25781,1.23829 0,0.0664 0.0547,0.0937 0.082,0.0937 0.0547,0 0.0937,-0.0117 0.12109,-0.10547 0.0391,-0.082 0.0547,-0.16407 0.1875,-0.36328 0.17579,-0.27344 0.46094,-0.35157 1.20313,-0.36719 l 1.71094,-0.0273 v 4.81641 c 0,1.10547 0,2.00781 -0.0547,2.48047 -0.0391,0.33594 -0.10547,0.56641 -0.35156,0.62109 -0.10547,0.0273 -0.24219,0.0547 -0.34766,0.0547 -0.0703,0 -0.0937,0.0391 -0.0937,0.0781 0,0.0703 0.0508,0.0977 0.1875,0.0977 0.35156,0 1.17188,-0.043 1.22656,-0.043 0.0664,0 0.82032,0.043 1.46875,0.043 0.13672,0 0.1875,-0.043 0.1875,-0.0977 0,-0.0391 -0.0117,-0.0937 -0.0937,-0.0937 -0.10547,0 -0.375,-0.0273 -0.53906,-0.0547 -0.36328,-0.0508 -0.41797,-0.26953 -0.45703,-0.60547 -0.0547,-0.47266 -0.0547,-1.375 -0.0547,-2.48047 z m 6.91797,6.15235 c 0,0.1875 0,0.67187 -0.0273,1.14453 -0.0274,0.33594 -0.10547,0.55469 -0.35157,0.60547 -0.10546,0.0273 -0.24218,0.0547 -0.35156,0.0547 -0.0664,0 -0.0937,0.0547 -0.0937,0.0937 0,0.0703 0.0547,0.0977 0.19141,0.0977 0.35156,0 1.10547,-0.043 1.16015,-0.043 0.0664,0 0.83594,0.043 1.4961,0.043 0.12109,0 0.1875,-0.043 0.1875,-0.0977 0,-0.0391 -0.0273,-0.0937 -0.0937,-0.0937 -0.10938,0 -0.37891,-0.0273 -0.53906,-0.0547 -0.35157,-0.0508 -0.4336,-0.26953 -0.45704,-0.60547 -0.043,-0.47266 -0.043,-0.95703 -0.043,-1.14453 v -0.98828 c 0,-0.375 -0.0508,-0.73828 0.14843,-1.14453 0.24219,-0.48438 1.91407,-3.1836 2.3086,-3.64063 0.2539,-0.30859 0.36328,-0.42969 0.58984,-0.56641 0.19141,-0.10937 0.41797,-0.14843 0.55469,-0.14843 0.0937,0 0.14844,-0.0664 0.14844,-0.1211 0,-0.0391 -0.0664,-0.0664 -0.14844,-0.0664 -0.23047,0 -1.07813,0.0273 -1.16016,0.0273 -0.0937,0 -0.51172,-0.0273 -0.82031,-0.0273 -0.125,0 -0.19141,0.0273 -0.19141,0.0664 0,0.0547 0.0664,0.10938 0.17578,0.13672 0.13672,0.0391 0.1875,0.13281 0.1875,0.29688 0,0.14453 -0.0508,0.33593 -0.19921,0.58984 -0.21875,0.37891 -1.69922,2.83203 -1.94532,3.32031 l -2.15625,-3.57422 c -0.082,-0.14843 -0.16015,-0.28515 -0.16015,-0.44531 0,-0.0937 0.0508,-0.14844 0.14843,-0.1875 0.10547,-0.043 0.1875,-0.082 0.1875,-0.12109 0,-0.0547 -0.0273,-0.082 -0.16015,-0.082 -0.46094,0 -0.94531,0.0273 -1.02735,0.0273 -0.0547,0 -0.9414,-0.0273 -1.17187,-0.0273 -0.10938,0 -0.14844,0.0273 -0.14844,0.082 0,0.0508 0.0547,0.10547 0.1211,0.10547 0.0937,0 0.32421,0.0547 0.5,0.16015 0.21484,0.15235 0.49609,0.40625 0.78125,0.83594 0.40234,0.60938 2.00781,3.15625 2.10546,3.33203 0.17188,0.32422 0.25391,0.55469 0.25391,1.17188 z m 0,0"
     id="path2253" /><path
     style="fill:#211e1e;fill-opacity:1;fill-rule:nonzero;stroke:none"
     d="m 476.37891,80.195312 c 0,1.800782 0.46875,2.664063 1.07421,3.246094 0.875,0.824219 2.1211,0.875 2.53907,0.875 0.73047,0 1.65625,-0.125 2.54297,-0.914062 0.98828,-0.875 1.13281,-2.355469 1.13281,-3.6875 v -1.320313 c 0,-1.925781 0,-2.269531 0.0273,-2.664062 0.0234,-0.433594 0.1211,-0.628907 0.45703,-0.703125 0.14453,-0.02734 0.21875,-0.03906 0.3086,-0.03906 0.0469,0 0.0976,-0.02344 0.0976,-0.07422 0,-0.07422 -0.0625,-0.09766 -0.19922,-0.09766 -0.36718,0 -0.94921,0.03516 -1.03515,0.03516 -0.0742,0 -0.75391,-0.03516 -1.3086,-0.03516 -0.13671,0 -0.19531,0.02344 -0.19531,0.09766 0,0.05078 0.0469,0.07422 0.0977,0.07422 0.10937,0 0.32031,0.01172 0.41797,0.03906 0.41015,0.08594 0.50781,0.28125 0.53125,0.703125 0.0234,0.394531 0.0234,0.738281 0.0234,2.664062 V 79.9375 c 0,1.269531 -0.14453,2.316406 -0.71484,3.019531 -0.44141,0.53125 -1.18359,0.890625 -1.9375,0.890625 -0.70312,0 -1.25781,-0.113281 -1.85937,-0.679687 -0.53125,-0.503907 -0.92579,-1.269531 -0.92579,-3.046875 v -1.726563 c 0,-1.925781 0,-2.269531 0.0234,-2.664062 0.0234,-0.433594 0.1211,-0.65625 0.45703,-0.703125 0.14844,-0.02734 0.22266,-0.03906 0.3086,-0.03906 0.0469,0 0.0976,-0.02344 0.0976,-0.07422 0,-0.07422 -0.0625,-0.09766 -0.19922,-0.09766 -0.36718,0 -1.10937,0.03516 -1.21875,0.03516 -0.11328,0 -0.86328,-0.03516 -1.41796,-0.03516 -0.13672,0 -0.19922,0.02344 -0.19922,0.09766 0,0.05078 0.0508,0.07422 0.0976,0.07422 0.11328,0 0.32032,0.01172 0.42188,0.03906 0.40625,0.08594 0.5039,0.28125 0.52734,0.703125 0.0274,0.394531 0.0274,0.738281 0.0274,2.664062 z m 10.63281,-2.429687 c 0.33203,0.371094 1.55469,1.652344 2.8125,2.972656 1.14844,1.195313 2.71484,2.738281 2.82812,2.835938 0.60157,0.554687 0.71485,0.644531 0.82422,0.644531 0.0742,0 0.0859,-0.0625 0.0859,-0.753906 l 0.0273,-6.144532 c 0,-0.628906 0.0234,-0.839843 0.37891,-0.910156 0.125,-0.02734 0.21094,-0.02734 0.26172,-0.02734 0.0742,0 0.12109,-0.0625 0.12109,-0.09766 0,-0.0625 -0.0859,-0.07422 -0.19531,-0.07422 -0.44531,0 -0.80469,0.02344 -0.92578,0.02344 -0.1211,0 -0.64063,-0.02344 -1.13672,-0.02344 -0.12109,0 -0.20703,0.01172 -0.20703,0.07422 0,0.03516 0.0117,0.09766 0.0859,0.09766 0.0859,0 0.33203,0.01172 0.53125,0.05078 0.33203,0.0625 0.39453,0.292968 0.40625,0.972656 l 0.10937,5.257812 c -0.33203,-0.347656 -1.49219,-1.59375 -2.56641,-2.703124 -1.67578,-1.726563 -3.2539,-3.40625 -3.42578,-3.578126 -0.11328,-0.109374 -0.30078,-0.320312 -0.42187,-0.320312 -0.0859,0 -0.14844,0.109375 -0.14844,0.53125 v 6.007812 c 0,0.949219 -0.0352,1.234376 -0.30859,1.308594 -0.16016,0.04687 -0.35547,0.05859 -0.44532,0.05859 -0.0469,0 -0.0859,0.03906 -0.0859,0.08594 0,0.07422 0.0625,0.08984 0.17578,0.08984 0.49219,0 0.94922,-0.03906 1.04687,-0.03906 0.0977,0 0.53125,0.03906 1.14844,0.03906 0.12109,0 0.19531,-0.02734 0.19531,-0.08984 0,-0.04688 -0.0351,-0.08594 -0.0859,-0.08594 -0.0977,0 -0.34375,-0.01172 -0.54297,-0.05859 -0.29688,-0.07422 -0.39453,-0.335937 -0.41797,-1.199218 z m 10.68359,1.480469 c 0,-1.628906 0,-1.925782 0.0117,-2.257813 0.0273,-0.371093 0.0898,-0.519531 0.38281,-0.578125 0.125,-0.02734 0.19922,-0.02734 0.27344,-0.02734 0.0352,0 0.0859,-0.04687 0.0859,-0.08594 0,-0.0625 -0.0508,-0.08594 -0.17188,-0.08594 -0.33203,0 -1.03515,0.02344 -1.08593,0.02344 -0.0625,0 -0.74219,-0.02344 -1.09766,-0.02344 -0.125,0 -0.17578,0.02344 -0.17578,0.08594 0,0.03906 0.0391,0.08594 0.0898,0.08594 0.0742,0 0.20703,0.01172 0.33203,0.03906 0.23438,0.04687 0.32032,0.207031 0.34375,0.566406 0.0274,0.332031 0.0274,0.628907 0.0274,2.257813 v 1.851562 c 0,1.007813 -0.0117,1.835938 -0.0625,2.269532 -0.0391,0.308593 -0.0742,0.503906 -0.28516,0.554687 -0.0977,0.02344 -0.23437,0.04687 -0.33203,0.04687 -0.0625,0 -0.0859,0.05078 -0.0859,0.08594 0,0.0625 0.0625,0.08984 0.17188,0.08984 0.33203,0 1.01172,-0.03906 1.07422,-0.03906 0.0508,0 0.7539,0.03906 1.35546,0.03906 0.125,0 0.17188,-0.03906 0.17188,-0.08984 0,-0.03516 -0.0234,-0.08594 -0.0859,-0.08594 -0.0976,0 -0.33203,-0.02344 -0.49219,-0.04687 -0.32031,-0.05078 -0.35937,-0.246094 -0.39453,-0.554687 -0.0508,-0.433594 -0.0508,-1.261719 -0.0508,-2.269532 z m 4.14453,-1.753906 c -0.16015,-0.417969 -0.29297,-0.738282 -0.29297,-0.875 0,-0.07422 0.0117,-0.136719 0.1211,-0.183594 0.0976,-0.03906 0.27344,-0.05078 0.39453,-0.05078 0.0742,0 0.11328,-0.04687 0.11328,-0.09766 0,-0.05078 -0.10156,-0.07422 -0.29687,-0.07422 -0.41797,0 -0.90235,0.02344 -1.01172,0.02344 -0.13672,0 -0.75391,-0.02344 -1.26953,-0.02344 -0.17579,0 -0.28516,0.01172 -0.28516,0.07422 0,0.03516 0.0234,0.09766 0.0859,0.09766 0.0625,0 0.24609,0 0.42187,0.03906 0.35547,0.08594 0.50391,0.195313 0.75,0.789063 l 2.66406,6.425781 c 0.21094,0.507812 0.28516,0.640625 0.40625,0.640625 0.11329,0 0.17579,-0.160156 0.47266,-0.789063 0.24609,-0.515625 0.72656,-1.652343 1.39063,-3.183593 0.55468,-1.28125 1.08593,-2.539063 1.21093,-2.835938 0.28516,-0.714844 0.45703,-0.863281 0.60547,-0.960938 0.19531,-0.125 0.44141,-0.125 0.51563,-0.125 0.0859,0 0.125,-0.04687 0.125,-0.09766 0,-0.05078 -0.0625,-0.07422 -0.17188,-0.07422 -0.32031,0 -0.78906,0.02344 -0.85156,0.02344 -0.13672,0 -0.62891,-0.02344 -1.0625,-0.02344 -0.17188,0 -0.24609,0.02344 -0.24609,0.08594 0,0.05078 0.0625,0.08594 0.125,0.08594 0.12109,0 0.24609,0 0.36718,0.03906 0.11328,0.03516 0.14844,0.132813 0.14844,0.21875 0,0.08594 -0.0469,0.234375 -0.0977,0.398437 -0.23437,0.75 -1.65234,4.328126 -2.28125,5.734376 z m 7.72657,3.605468 c 0,1.007813 0,1.835938 -0.0625,2.269532 -0.0508,0.308593 -0.0742,0.515624 -0.28516,0.554687 -0.0977,0.01172 -0.23438,0.04687 -0.33203,0.04687 -0.0625,0 -0.0859,0.05078 -0.0859,0.08594 0,0.0625 0.0625,0.08984 0.17188,0.08984 0.17187,0 0.41796,-0.01563 0.6289,-0.02734 0.23438,-0.01172 0.44531,-0.01172 0.46875,-0.01172 0.16016,0 0.44531,0 0.89844,0.02344 0.44531,0.01563 1.07422,0.03906 1.89062,0.03906 0.41797,0 0.52735,0 0.60157,-0.273438 0.0625,-0.21875 0.14843,-0.9375 0.14843,-1.011719 0,-0.07422 -0.0117,-0.160156 -0.0742,-0.160156 -0.0586,0 -0.0859,0.03906 -0.10938,0.160156 -0.0625,0.421876 -0.21094,0.605469 -0.49219,0.730469 -0.28515,0.109375 -0.80468,0.109375 -1.08593,0.109375 -1.07422,0 -1.26954,-0.132812 -1.29688,-0.839844 -0.0117,-0.207031 0,-1.429687 0,-1.785156 V 80.21875 c 0,-0.03516 0.0117,-0.07422 0.0742,-0.07422 0.18359,0 1.34375,0.01563 1.64062,0.05078 0.41797,0.05078 0.51954,0.171876 0.55469,0.320313 0.0508,0.136719 0.0508,0.246094 0.0508,0.34375 0,0.0625 0.0234,0.101563 0.0742,0.101563 0.0742,0 0.0977,-0.113282 0.0977,-0.199219 0,-0.07422 0.0273,-0.46875 0.0508,-0.675781 0.0234,-0.347657 0.0859,-0.519532 0.0859,-0.582032 0,-0.0625 -0.0234,-0.08594 -0.0625,-0.08594 -0.0352,0 -0.0859,0.0625 -0.16016,0.136719 -0.10937,0.109374 -0.27344,0.121093 -0.53125,0.148437 -0.24609,0.02344 -1.67578,0.02344 -1.8125,0.02344 -0.0625,0 -0.0625,-0.03906 -0.0625,-0.109374 v -2.851563 c 0,-0.07422 0.0117,-0.109375 0.0625,-0.109375 0.125,0 1.38281,0.01172 1.56641,0.03516 0.59375,0.07422 0.70312,0.148438 0.77734,0.320313 0.0508,0.125 0.0625,0.296875 0.0625,0.371093 0,0.08594 0.0234,0.136719 0.0859,0.136719 0.0508,0 0.0859,-0.0625 0.0977,-0.113281 0.0234,-0.121094 0.0508,-0.589844 0.0625,-0.691406 0.0234,-0.292969 0.0859,-0.417969 0.0859,-0.492188 0,-0.05078 -0.0117,-0.09766 -0.0508,-0.09766 -0.0469,0 -0.0977,0.03516 -0.14453,0.04687 -0.0859,0.01563 -0.28516,0.05078 -0.49609,0.0625 -0.2461,0.01172 -2.51563,0 -2.58985,0 -0.0625,0 -0.76562,-0.02344 -1.25781,-0.02344 -0.125,0 -0.17188,0.02344 -0.17188,0.08594 0,0.03906 0.0469,0.08594 0.0859,0.08594 0.0977,0 0.28125,0.01172 0.36719,0.02734 0.35937,0.04687 0.42187,0.21875 0.44531,0.578125 0.0274,0.332031 0.0274,0.628907 0.0274,2.257813 z m 6.79687,0 c 0,1.007813 0,1.835938 -0.0625,2.269532 -0.0508,0.308593 -0.0742,0.503906 -0.28516,0.554687 -0.0977,0.02344 -0.23437,0.04687 -0.33203,0.04687 -0.0625,0 -0.0859,0.05078 -0.0859,0.08594 0,0.0625 0.0625,0.08984 0.17187,0.08984 0.33203,0 1.0625,-0.03906 1.07422,-0.03906 0.0469,0 0.73828,0.03906 1.33203,0.03906 0.12109,0 0.17188,-0.03906 0.17188,-0.08984 0,-0.03516 -0.0117,-0.08594 -0.0859,-0.08594 -0.0977,0 -0.33203,-0.02344 -0.48047,-0.04687 -0.33203,-0.05078 -0.39453,-0.246094 -0.43359,-0.554687 -0.0469,-0.433594 -0.0469,-1.246094 -0.0469,-2.257813 v -0.25 c 0,-0.05859 0.0234,-0.08594 0.0742,-0.08594 l 1.37891,0.02734 c 0.0742,0 0.10156,0.01172 0.14843,0.05859 0.23438,0.285156 0.71485,0.964844 1.17188,1.53125 0.61719,0.789063 1.01172,1.296875 1.48047,1.542969 0.27343,0.148437 0.54297,0.210937 1.16015,0.210937 h 0.67969 c 0.19531,0 0.25781,-0.02734 0.25781,-0.08984 0,-0.03516 -0.0351,-0.08594 -0.0976,-0.08594 -0.0625,0 -0.17188,0 -0.38282,-0.03516 -0.26953,-0.03906 -0.6289,-0.136719 -1.21093,-0.726563 -0.62891,-0.65625 -1.37891,-1.605469 -2.26953,-2.714843 1.01171,-0.863282 1.33593,-1.617188 1.33593,-2.394532 0,-0.726562 -0.48437,-1.234375 -0.7539,-1.429687 -0.56641,-0.394531 -1.33203,-0.457031 -2.02344,-0.457031 -0.33203,0 -1.24609,0.02344 -1.35938,0.02344 -0.0586,0 -0.78906,-0.02344 -1.28125,-0.02344 -0.12109,0 -0.17187,0.02344 -0.17187,0.08594 0,0.03906 0.0508,0.08594 0.0859,0.08594 0.0976,0 0.28125,0.01172 0.37109,0.02734 0.35547,0.04687 0.41797,0.21875 0.44141,0.578125 0.0273,0.332031 0.0273,0.628907 0.0273,2.257813 z m 0.9375,-4.332031 c 0,-0.0625 0.0352,-0.09766 0.0859,-0.125 0.10937,-0.02344 0.45703,-0.05859 0.77734,-0.05859 1.16016,0 1.875,0.75 1.875,2.058594 0,0.800781 -0.28515,1.359375 -0.65625,1.605469 -0.25781,0.171875 -0.55469,0.183594 -0.8125,0.183594 -0.48047,0 -1.03515,-0.07422 -1.19531,-0.160157 -0.0508,-0.03906 -0.0742,-0.07422 -0.0742,-0.136719 z m 7.90625,7.511719 c 0.59375,0 1.26953,-0.07422 1.72656,-0.367188 0.77735,-0.507812 1.01172,-1.175781 1.01172,-1.789062 0,-0.902344 -0.45703,-1.628906 -1.77734,-2.53125 l -0.30469,-0.207032 c -1.07422,-0.730468 -1.40625,-1.113281 -1.40625,-1.777343 0,-0.742188 0.65234,-1.136719 1.44141,-1.136719 0.97656,0 1.33203,0.394531 1.40625,0.519531 0.0625,0.109375 0.14843,0.394531 0.16015,0.519531 0.0117,0.08594 0.0234,0.132813 0.0977,0.132813 0.0742,0 0.0898,-0.07422 0.0898,-0.234375 0,-0.714844 0.0469,-1.058594 0.0469,-1.109375 0,-0.0625 -0.0234,-0.07422 -0.10938,-0.07422 -0.0859,0 -0.17578,0 -0.38281,-0.05078 -0.25781,-0.05859 -0.69141,-0.121094 -1.125,-0.121094 -1.42969,0 -2.40625,0.738281 -2.40625,1.972657 0,0.730468 0.38281,1.371093 1.55859,2.246093 l 0.49219,0.371094 c 0.96094,0.714844 1.36719,1.070313 1.36719,1.824219 0,0.789062 -0.55469,1.394531 -1.62891,1.394531 -0.72656,0 -1.53906,-0.269531 -1.71484,-1.035156 -0.0352,-0.148438 -0.0352,-0.296875 -0.0352,-0.382813 0,-0.08594 -0.0391,-0.125 -0.0976,-0.125 -0.0625,0 -0.0859,0.0625 -0.0859,0.175782 -0.0156,0.171874 -0.0625,0.589843 -0.0625,1.109374 0,0.28125 0.0117,0.320313 0.16016,0.394532 0.44531,0.207031 1.07421,0.28125 1.57812,0.28125 m 6.53906,-5.03125 c 0,-1.628906 0,-1.925782 0.0117,-2.257813 0.0274,-0.371093 0.0859,-0.519531 0.38281,-0.578125 0.125,-0.02734 0.19922,-0.02734 0.27344,-0.02734 0.0352,0 0.0859,-0.04687 0.0859,-0.08594 0,-0.0625 -0.0508,-0.08594 -0.17578,-0.08594 -0.33203,0 -1.03516,0.02344 -1.08203,0.02344 -0.0625,0 -0.74219,-0.02344 -1.10157,-0.02344 -0.12109,0 -0.17187,0.02344 -0.17187,0.08594 0,0.03906 0.0391,0.08594 0.0859,0.08594 0.0742,0 0.21093,0.01172 0.33593,0.03906 0.23438,0.04687 0.32032,0.207031 0.34375,0.566406 0.0234,0.332031 0.0234,0.628907 0.0234,2.257813 v 1.851562 c 0,1.007813 -0.0117,1.835938 -0.0586,2.269532 -0.0391,0.308593 -0.0742,0.503906 -0.28516,0.554687 -0.0976,0.02344 -0.23437,0.04687 -0.33203,0.04687 -0.0625,0 -0.0859,0.05078 -0.0859,0.08594 0,0.0625 0.0586,0.08984 0.17188,0.08984 0.33203,0 1.01172,-0.03906 1.07422,-0.03906 0.0469,0 0.75,0.03906 1.35547,0.03906 0.12109,0 0.17187,-0.03906 0.17187,-0.08984 0,-0.03516 -0.0234,-0.08594 -0.0859,-0.08594 -0.0976,0 -0.33203,-0.02344 -0.49218,-0.04687 -0.32032,-0.05078 -0.35938,-0.246094 -0.39454,-0.554687 -0.0508,-0.433594 -0.0508,-1.261719 -0.0508,-2.269532 z m 6.17969,-2.554688 1.35938,0.02344 c 1.03515,0.02734 1.26953,0.261718 1.30468,0.582031 l 0.0117,0.109375 c 0.0156,0.148438 0.0391,0.1875 0.0899,0.1875 0.0469,0 0.0976,-0.05078 0.0976,-0.136719 0,-0.125 0.0352,-0.875 0.0352,-1.195312 0,-0.0625 0,-0.125 -0.0469,-0.125 -0.0508,0 -0.14843,0.02344 -0.30859,0.05078 -0.17188,0.02344 -0.42188,0.04687 -0.77734,0.04687 h -4.09766 c -0.12109,0 -0.54297,-0.01172 -0.85156,-0.04687 -0.29297,-0.03906 -0.40625,-0.125 -0.48047,-0.125 -0.0352,0 -0.0977,0.136719 -0.10938,0.199219 -0.0234,0.08594 -0.23437,1.023437 -0.23437,1.132812 0,0.0625 0.0469,0.08594 0.0742,0.08594 0.0469,0 0.0859,-0.01172 0.10937,-0.09766 0.0391,-0.07422 0.0508,-0.148437 0.17578,-0.332031 0.15625,-0.25 0.41797,-0.324219 1.09766,-0.335937 l 1.56641,-0.02344 v 4.40625 c 0,1.007813 0,1.835938 -0.0508,2.269532 -0.0391,0.308593 -0.0977,0.515624 -0.32031,0.566406 -0.0976,0.02344 -0.22265,0.04687 -0.32031,0.04687 -0.0625,0 -0.0859,0.03906 -0.0859,0.07422 0,0.0625 0.0469,0.08984 0.17188,0.08984 0.32031,0 1.07422,-0.03906 1.12109,-0.03906 0.0625,0 0.75391,0.03906 1.34375,0.03906 0.125,0 0.17578,-0.03906 0.17578,-0.08984 0,-0.03516 -0.0117,-0.08594 -0.0859,-0.08594 -0.10156,0 -0.34765,-0.02344 -0.49609,-0.04687 -0.33203,-0.05078 -0.38281,-0.246094 -0.41797,-0.554687 -0.0508,-0.433594 -0.0508,-1.261719 -0.0508,-2.269532 z m 6.63672,5.625 c 0,0.175782 0,0.617188 -0.0234,1.050782 -0.0234,0.308593 -0.0976,0.503906 -0.32031,0.554687 -0.0977,0.02344 -0.22266,0.04687 -0.32031,0.04687 -0.0625,0 -0.0859,0.05078 -0.0859,0.08594 0,0.0625 0.0469,0.08984 0.17187,0.08984 0.32032,0 1.01172,-0.03906 1.0586,-0.03906 0.0625,0 0.76562,0.03906 1.37109,0.03906 0.11328,0 0.17188,-0.03906 0.17188,-0.08984 0,-0.03516 -0.0234,-0.08594 -0.0859,-0.08594 -0.0977,0 -0.34375,-0.02344 -0.49219,-0.04687 -0.32031,-0.05078 -0.39453,-0.246094 -0.42187,-0.554687 -0.0352,-0.433594 -0.0352,-0.875 -0.0352,-1.050782 v -0.898437 c 0,-0.347657 -0.0508,-0.679688 0.13672,-1.050781 0.22266,-0.441407 1.75,-2.910157 2.10937,-3.328126 0.23438,-0.285156 0.33204,-0.398437 0.54297,-0.519531 0.17188,-0.09766 0.38282,-0.136719 0.50391,-0.136719 0.0859,0 0.13672,-0.0625 0.13672,-0.109374 0,-0.03906 -0.0625,-0.0625 -0.13672,-0.0625 -0.21094,0 -0.98438,0.02344 -1.05859,0.02344 -0.0859,0 -0.46875,-0.02344 -0.75391,-0.02344 -0.10938,0 -0.17188,0.02344 -0.17188,0.0625 0,0.04687 0.0625,0.09766 0.16016,0.121093 0.12109,0.03906 0.17188,0.125 0.17188,0.273438 0,0.132812 -0.0508,0.308593 -0.1836,0.542969 -0.19922,0.34375 -1.55469,2.589843 -1.77734,3.035156 l -1.97266,-3.269532 c -0.0781,-0.136718 -0.14844,-0.261718 -0.14844,-0.410156 0,-0.08594 0.0469,-0.132812 0.13282,-0.171875 0.10156,-0.03516 0.17578,-0.07422 0.17578,-0.109375 0,-0.05078 -0.0273,-0.07422 -0.14844,-0.07422 -0.42187,0 -0.86328,0.02344 -0.9375,0.02344 -0.0508,0 -0.86328,-0.02344 -1.07422,-0.02344 -0.0976,0 -0.13672,0.02344 -0.13672,0.07422 0,0.05078 0.0508,0.09766 0.11328,0.09766 0.0859,0 0.29297,0.05078 0.45704,0.148438 0.19531,0.136719 0.45312,0.371094 0.71484,0.765625 0.36719,0.554687 1.83594,2.886719 1.92187,3.046875 0.16016,0.296875 0.23438,0.503906 0.23438,1.074219 z m 8.64844,-2.15625 c 0,1.886719 1.27343,4.117188 4.24609,4.117188 2.61328,0 4.35156,-1.933594 4.35156,-4.277344 0,-2.445312 -1.84765,-3.9375 -4.29297,-3.9375 -2.99609,0 -4.30468,2.40625 -4.30468,4.097656 m 1.125,-0.285156 c 0,-2.28125 1.30468,-3.417969 3.12109,-3.417969 1.71484,0 3.24219,1.320313 3.24219,3.835938 0,3.035156 -1.96094,3.554687 -2.9375,3.554687 -1.96094,0 -3.42578,-1.53125 -3.42578,-3.972656 m 9.74609,1.222656 c 0,1.007813 0,1.835938 -0.0625,2.269532 -0.0508,0.308593 -0.0742,0.515624 -0.28516,0.554687 -0.0977,0.01172 -0.23437,0.04687 -0.33203,0.04687 -0.0625,0 -0.0859,0.05078 -0.0859,0.08594 0,0.0625 0.0625,0.08984 0.17187,0.08984 0.33203,0 1.01172,-0.03906 1.07422,-0.03906 0.0469,0 0.75391,0.03906 1.35547,0.03906 0.125,0 0.17187,-0.03906 0.17187,-0.08984 0,-0.03516 -0.0234,-0.08594 -0.0859,-0.08594 -0.0977,0 -0.33204,-0.02344 -0.49219,-0.04687 -0.29688,-0.05078 -0.35938,-0.246094 -0.39453,-0.554687 -0.0508,-0.410157 -0.0508,-1.234376 -0.0508,-2.269532 v -0.839844 c 0,-0.07422 0.0117,-0.09766 0.0742,-0.09766 0.1875,0 1.46875,-0.01563 1.73829,0.02344 0.33593,0.04687 0.50781,0.183594 0.55859,0.332031 0.0469,0.125 0.0586,0.273437 0.0742,0.382813 0,0.05078 0.0117,0.09766 0.0742,0.09766 0.0742,0 0.0976,-0.109375 0.0976,-0.207032 0,-0.07422 0.0117,-0.496093 0.0352,-0.703124 0.0273,-0.347657 0.10156,-0.519532 0.10156,-0.582032 0,-0.04687 -0.0156,-0.08594 -0.0625,-0.08594 -0.0391,0 -0.0859,0.05078 -0.13672,0.113281 -0.0976,0.121094 -0.24609,0.15625 -0.5039,0.183594 -0.14844,0.01172 -0.3125,0.01172 -0.4961,0.01172 l -1.48047,0.01172 c -0.0742,0 -0.0742,-0.03516 -0.0742,-0.09766 v -2.863281 c 0,-0.08594 0.0273,-0.109375 0.0859,-0.109375 l 1.77735,0.02344 c 0.41797,0 0.67968,0.171875 0.74218,0.308594 0.0625,0.136719 0.0977,0.308594 0.0977,0.394531 0,0.07422 0.0352,0.125 0.0859,0.125 0.0508,0 0.0859,-0.0625 0.0977,-0.113281 0.0234,-0.121094 0.0391,-0.589844 0.0508,-0.691406 0.0351,-0.292969 0.0859,-0.417969 0.0859,-0.492188 0,-0.05078 -0.0234,-0.09766 -0.0742,-0.09766 -0.0391,0 -0.0859,0.04687 -0.14843,0.0625 -0.0977,0.03516 -0.28125,0.03516 -0.49219,0.04687 -0.24609,0.01172 -2.60156,0 -2.8125,0 -0.0625,0 -0.74219,-0.02344 -1.23438,-0.02344 -0.125,0 -0.17187,0.02344 -0.17187,0.08594 0,0.03906 0.0469,0.08594 0.0859,0.08594 0.0976,0 0.28515,0.01172 0.37109,0.02734 0.35547,0.04687 0.41797,0.21875 0.44141,0.578125 0.0273,0.332031 0.0273,0.628907 0.0273,2.257813 z m 16.08594,-5.664062 c -0.14844,-0.417969 -0.22266,-0.582032 -0.3086,-0.582032 -0.0742,0 -0.125,0.0625 -0.30859,0.570313 l -2.61719,7.042969 h -0.0234 c -0.1836,-0.652344 -1.46875,-5.179688 -1.65235,-5.96875 -0.125,-0.542969 -0.23437,-0.976563 -0.23437,-1.136719 0,-0.160156 0.0859,-0.257813 0.16015,-0.296875 0.14844,-0.07422 0.38282,-0.07422 0.48047,-0.07422 0.0625,0 0.125,-0.01172 0.125,-0.08594 0,-0.05078 -0.0508,-0.08594 -0.22265,-0.08594 -0.61719,0 -1.16016,0.03516 -1.26954,0.03516 -0.13671,0 -0.8164,-0.03516 -1.45703,-0.03516 -0.125,0 -0.19922,0.02344 -0.19922,0.08594 0,0.07422 0.0508,0.08594 0.11329,0.08594 0.0859,0 0.39453,0.01172 0.55468,0.07422 0.32032,0.125 0.48047,0.308594 0.67969,0.960938 l 2.19531,7.316406 c 0.2461,0.839844 0.3086,0.976562 0.42969,0.976562 0.14844,0 0.21094,-0.136718 0.41016,-0.652344 0.4414,-1.148437 2.13281,-5.675781 2.57812,-6.863281 h 0.0234 l 2.41797,6.875 c 0.17187,0.480469 0.24609,0.640625 0.37109,0.640625 0.13281,0 0.19531,-0.148437 0.51563,-1.0625 0.48437,-1.378906 1.73047,-5.304687 2.27343,-6.871094 0.23047,-0.679687 0.42969,-1.195312 0.80079,-1.332031 0.13281,-0.05078 0.37109,-0.0625 0.41796,-0.0625 0.0742,0 0.11329,-0.03516 0.11329,-0.09766 0,-0.05078 -0.0625,-0.07422 -0.17579,-0.07422 -0.38281,0 -0.91015,0.03516 -0.99609,0.03516 -0.11328,0 -0.62891,-0.03516 -1.26172,-0.03516 -0.14844,0 -0.20703,0.02344 -0.20703,0.08594 0,0.05078 0.0469,0.08594 0.10938,0.08594 0.5664,0 0.70312,0.148438 0.70312,0.371094 0,0.160156 -0.0117,0.332031 -0.13672,0.789063 -0.42969,1.578124 -1.5664,5.15625 -1.89844,6.292968 h -0.0508 z m 6.4414,7.550781 c -0.21093,0.53125 -0.42187,0.898437 -0.91406,0.960937 -0.0859,0.01172 -0.24609,0.02344 -0.32031,0.02344 -0.0508,0 -0.0977,0.03906 -0.0977,0.08594 0,0.0625 0.0703,0.08984 0.20703,0.08984 0.44532,0 0.98829,-0.03906 1.09766,-0.03906 0.125,0 0.71484,0.03906 0.97656,0.03906 0.0977,0 0.16016,-0.02734 0.16016,-0.08984 0,-0.04688 -0.0234,-0.08594 -0.11328,-0.08594 h -0.0977 c -0.18359,0 -0.37109,-0.07422 -0.37109,-0.28125 0,-0.1875 0.0625,-0.445312 0.16015,-0.703125 l 0.61719,-1.679687 c 0.0274,-0.05859 0.0625,-0.08594 0.11328,-0.08594 h 2.50391 c 0.0625,0 0.0742,0.01172 0.0977,0.0625 l 0.97265,2.40625 c 0.0742,0.171875 -0.0351,0.257812 -0.0976,0.28125 -0.0469,0.02734 -0.0742,0.02734 -0.0742,0.07422 0,0.0625 0.17187,0.0625 0.38281,0.07422 0.75391,0.02734 1.55469,0.02734 1.71484,0.02734 0.125,0 0.25,-0.02734 0.25,-0.08984 0,-0.05859 -0.0742,-0.08594 -0.13672,-0.08594 -0.11328,0 -0.27343,-0.01172 -0.43359,-0.05859 -0.23437,-0.07422 -0.53125,-0.210937 -0.92578,-1.148437 -0.66406,-1.589844 -2.40625,-5.921875 -2.60156,-6.367188 -0.10938,-0.234375 -0.14844,-0.382812 -0.25782,-0.382812 -0.0742,0 -0.125,0.0625 -0.26171,0.410156 z m 1.56641,-2.195313 c -0.0391,0 -0.0508,-0.02734 -0.0391,-0.07422 l 1.01172,-2.875 c 0.0625,-0.160156 0.125,-0.160156 0.18359,0 l 1.07422,2.875 c 0.0117,0.04687 0.0117,0.07422 -0.0352,0.07422 z m 7.03125,0.308594 c 0,1.007813 0,1.835938 -0.0625,2.269532 -0.0508,0.308593 -0.0742,0.503906 -0.28516,0.554687 -0.0977,0.02344 -0.23437,0.04687 -0.33203,0.04687 -0.0625,0 -0.0859,0.05078 -0.0859,0.08594 0,0.0625 0.0625,0.08984 0.17187,0.08984 0.33594,0 1.0625,-0.03906 1.07422,-0.03906 0.0508,0 0.73828,0.03906 1.33203,0.03906 0.125,0 0.17188,-0.03906 0.17188,-0.08984 0,-0.03516 -0.0117,-0.08594 -0.0859,-0.08594 -0.0977,0 -0.33203,-0.02344 -0.48047,-0.04687 -0.33203,-0.05078 -0.39453,-0.246094 -0.42969,-0.554687 -0.0508,-0.433594 -0.0508,-1.246094 -0.0508,-2.257813 v -0.25 c 0,-0.05859 0.0234,-0.08594 0.0742,-0.08594 l 1.37891,0.02734 c 0.0742,0 0.10156,0.01172 0.14843,0.05859 0.23438,0.285156 0.71875,0.964844 1.17188,1.53125 0.61719,0.789063 1.01172,1.296875 1.48047,1.542969 0.27343,0.148437 0.54297,0.210937 1.16015,0.210937 h 0.67969 c 0.19531,0 0.25781,-0.02734 0.25781,-0.08984 0,-0.03516 -0.0351,-0.08594 -0.0976,-0.08594 -0.0625,0 -0.17188,0 -0.38282,-0.03516 -0.26953,-0.03906 -0.6289,-0.136719 -1.20703,-0.726563 -0.63281,-0.65625 -1.38281,-1.605469 -2.26953,-2.714843 1.00781,-0.863282 1.33203,-1.617188 1.33203,-2.394532 0,-0.726562 -0.48437,-1.234375 -0.7539,-1.429687 -0.56641,-0.394531 -1.33203,-0.457031 -2.02344,-0.457031 -0.33203,0 -1.24609,0.02344 -1.35547,0.02344 -0.0625,0 -0.78906,-0.02344 -1.28516,-0.02344 -0.12109,0 -0.17187,0.02344 -0.17187,0.08594 0,0.03906 0.0508,0.08594 0.0859,0.08594 0.0976,0 0.28515,0.01172 0.37109,0.02734 0.35547,0.04687 0.41797,0.21875 0.44141,0.578125 0.0273,0.332031 0.0273,0.628907 0.0273,2.257813 z m 0.9375,-4.332031 c 0,-0.0625 0.0352,-0.09766 0.0859,-0.125 0.10937,-0.02344 0.45703,-0.05859 0.77734,-0.05859 1.16016,0 1.875,0.75 1.875,2.058594 0,0.800781 -0.28515,1.359375 -0.65625,1.605469 -0.25781,0.171875 -0.55469,0.183594 -0.8125,0.183594 -0.48047,0 -1.03515,-0.07422 -1.19531,-0.160157 -0.0508,-0.03906 -0.0742,-0.07422 -0.0742,-0.136719 z m 7.90625,7.511719 c 0.59375,0 1.27344,-0.07422 1.72656,-0.367188 0.77735,-0.507812 1.01172,-1.175781 1.01172,-1.789062 0,-0.902344 -0.45312,-1.628906 -1.77344,-2.53125 l -0.30859,-0.207032 c -1.07422,-0.730468 -1.40625,-1.113281 -1.40625,-1.777343 0,-0.742188 0.65234,-1.136719 1.44141,-1.136719 0.97656,0 1.33203,0.394531 1.40625,0.519531 0.0625,0.109375 0.14843,0.394531 0.16015,0.519531 0.0117,0.08594 0.0274,0.132813 0.10157,0.132813 0.0742,0 0.0859,-0.07422 0.0859,-0.234375 0,-0.714844 0.0469,-1.058594 0.0469,-1.109375 0,-0.0625 -0.0234,-0.07422 -0.10938,-0.07422 -0.0859,0 -0.17187,0 -0.38281,-0.05078 -0.25781,-0.05859 -0.69141,-0.121094 -1.125,-0.121094 -1.42969,0 -2.40234,0.738281 -2.40234,1.972657 0,0.730468 0.38281,1.371093 1.55468,2.246093 l 0.49219,0.371094 c 0.96094,0.714844 1.3711,1.070313 1.3711,1.824219 0,0.789062 -0.5586,1.394531 -1.63282,1.394531 -0.72656,0 -1.53906,-0.269531 -1.71093,-1.035156 -0.0391,-0.148438 -0.0391,-0.296875 -0.0391,-0.382813 0,-0.08594 -0.0351,-0.125 -0.0976,-0.125 -0.0625,0 -0.0859,0.0625 -0.0859,0.175782 -0.0117,0.171874 -0.0625,0.589843 -0.0625,1.109374 0,0.28125 0.0117,0.320313 0.16016,0.394532 0.44531,0.207031 1.07421,0.28125 1.57812,0.28125 m 4.89844,-1.292969 c -0.21094,0.53125 -0.41797,0.898437 -0.91406,0.960937 -0.0859,0.01172 -0.2461,0.02344 -0.32032,0.02344 -0.0469,0 -0.0976,0.03906 -0.0976,0.08594 0,0.0625 0.0742,0.08984 0.21093,0.08984 0.44141,0 0.98438,-0.03906 1.09766,-0.03906 0.12109,0 0.71484,0.03906 0.97266,0.03906 0.10156,0 0.16015,-0.02734 0.16015,-0.08984 0,-0.04688 -0.0234,-0.08594 -0.10937,-0.08594 h -0.10156 c -0.1836,0 -0.36719,-0.07422 -0.36719,-0.28125 0,-0.1875 0.0625,-0.445312 0.16015,-0.703125 l 0.61719,-1.679687 c 0.0234,-0.05859 0.0625,-0.08594 0.10938,-0.08594 h 2.5039 c 0.0625,0 0.0742,0.01172 0.10157,0.0625 l 0.97265,2.40625 c 0.0742,0.171875 -0.0351,0.257812 -0.0976,0.28125 -0.0508,0.02734 -0.0742,0.02734 -0.0742,0.07422 0,0.0625 0.17187,0.0625 0.38281,0.07422 0.75391,0.02734 1.55469,0.02734 1.71484,0.02734 0.1211,0 0.2461,-0.02734 0.2461,-0.08984 0,-0.05859 -0.0742,-0.08594 -0.13672,-0.08594 -0.10938,0 -0.26953,-0.01172 -0.42969,-0.05859 -0.23437,-0.07422 -0.53125,-0.210937 -0.92578,-1.148437 -0.66797,-1.589844 -2.40625,-5.921875 -2.60156,-6.367188 -0.11328,-0.234375 -0.14844,-0.382812 -0.26172,-0.382812 -0.0742,0 -0.125,0.0625 -0.25781,0.410156 z m 1.5664,-2.195313 c -0.0352,0 -0.0508,-0.02734 -0.0352,-0.07422 l 1.01172,-2.875 c 0.0586,-0.160156 0.12109,-0.160156 0.18359,0 l 1.07422,2.875 c 0.0117,0.04687 0.0117,0.07422 -0.0391,0.07422 z m 11.15235,-4.0625 c -0.13281,-0.355468 -0.22266,-0.492187 -0.29688,-0.492187 -0.0625,0 -0.13281,0.0625 -0.29297,0.480469 l -2.27343,5.875 h -0.0234 c -0.13281,-0.433594 -1.24609,-4.28125 -1.41797,-4.949219 -0.125,-0.46875 -0.21094,-0.839844 -0.21094,-0.972656 0,-0.136719 0.0742,-0.199219 0.14844,-0.222657 0.125,-0.0625 0.29688,-0.0625 0.38281,-0.0625 0.0508,0 0.10938,-0.03516 0.10938,-0.09766 0,-0.05078 -0.0469,-0.07422 -0.19531,-0.07422 -0.54297,0 -1.03516,0.02344 -1.13672,0.02344 -0.10938,0 -0.71485,-0.02344 -1.28125,-0.02344 -0.0977,0 -0.17188,0.02344 -0.17188,0.07422 0,0.0625 0.0469,0.09766 0.0977,0.09766 0.0742,0 0.34375,0.01172 0.49219,0.0625 0.28515,0.09766 0.39453,0.234376 0.57031,0.789063 l 1.92187,6.21875 c 0.22266,0.714844 0.3086,0.824219 0.42188,0.824219 0.12109,0 0.19531,-0.109375 0.3789,-0.554688 0.39844,-0.972656 1.86329,-4.824218 2.23438,-5.734375 l 2.12109,5.746094 c 0.14844,0.410156 0.25,0.542969 0.35938,0.542969 0.12109,0 0.18359,-0.121094 0.46875,-0.898438 0.43359,-1.171875 1.5039,-4.503906 1.98437,-5.835937 0.21094,-0.578125 0.38672,-1 0.70313,-1.109375 0.125,-0.03906 0.33594,-0.05078 0.37109,-0.05078 0.0742,0 0.10156,-0.0625 0.10156,-0.109374 0,-0.03906 -0.0508,-0.0625 -0.14843,-0.0625 -0.33594,0 -0.80469,0.02344 -0.87891,0.02344 -0.0977,0 -0.55469,-0.02344 -1.10937,-0.02344 -0.13672,0 -0.1836,0.02344 -0.1836,0.07422 0,0.03516 0.0352,0.09766 0.0977,0.09766 0.49219,0 0.57812,0.125 0.57812,0.308594 0,0.136719 -0.0117,0.257813 -0.12109,0.652344 -0.38281,1.347656 -1.35547,4.382812 -1.62891,5.246094 h -0.0508 z m 0,0"
     id="path2255" /><path
     style="fill:#211e1e;fill-opacity:1;fill-rule:nonzero;stroke:none"
     d="m 532.92187,113.88281 -29.28515,62.55469 -39.25,-80.679688 c -0.64063,-1.410156 -1.15235,-1.925781 -1.92188,-1.925781 -0.76953,0 -1.28125,0.898438 -1.41015,2.3125 l -9.23828,83.628909 c -0.51172,4.87109 -0.89454,9.875 -5.12891,10.64453 -1.92188,0.38281 -5.15234,0.38281 -6.17969,0.38281 -0.64062,0 -1.28125,0.25781 -1.28125,0.64453 0,0.89453 0.89844,1.15235 2.17969,1.15235 3.46484,0 11.94922,-0.38672 13.10547,-0.38672 1.02734,0 7.18359,0.38672 11.92969,0.38672 1.53906,0 2.30859,-0.25782 2.30859,-1.15235 0,-0.38672 -0.51563,-0.64453 -1.02734,-0.64453 -0.76954,0 -2.69141,-0.12891 -4.875,-0.64062 -1.92188,-0.38282 -3.33204,-2.05079 -3.33204,-3.97657 0,-2.17968 0,-4.48828 0.125,-6.53906 l 5.13282,-59.51562 h 0.51172 c 1.41015,3.46093 15.77734,34.24609 16.93359,36.55468 0.64062,1.28125 11.67187,23.47266 15.00391,29.75782 2.4375,4.61718 3.07812,5.89843 3.97656,5.89843 1.15625,0 1.53906,-1.15234 4.23437,-6.79687 l 27.48828,-58.34375 z m 0,0"
     id="path2257" /><path
     style="fill:#211e1e;fill-opacity:1;fill-rule:nonzero;stroke:none"
     d="m 564.48047,96.710938 c 0,-0.769532 -0.64063,-1.027344 -2.05078,-1.027344 -3.85157,0 -11.92969,0.386718 -12.57032,0.386718 -0.64062,0 -8.72265,-0.386718 -12.95703,-0.386718 -1.41015,0 -2.05078,0.257812 -2.05078,1.027344 0,0.511718 0.51172,0.769531 1.02735,0.769531 0.89453,0 2.5625,0.128906 3.97265,0.515625 2.82422,0.640625 4.10547,2.820316 4.36328,7.179686 0.25782,4.10547 0.25782,7.69531 0.25782,27.70703 v 22.57422 c 0,7.21484 -0.004,13.66797 -0.13282,18.87109 h 0.10547 c -0.0312,4.5586 -0.0937,6.625 -0.23047,8.83204 -0.25781,4.36328 -1.53906,6.54296 -4.36328,7.18359 -1.41015,0.38672 -3.07812,0.51562 -3.97265,0.51562 -0.51563,0 -1.02735,0.25391 -1.02735,0.76954 0,0.76953 0.64063,1.02343 2.05078,1.02343 4.23438,0 12.31641,-0.38281 12.95703,-0.38281 0.64063,0 8.71875,0.38281 12.57032,0.38281 1.41015,0 2.05078,-0.2539 2.05078,-1.02343 0,-0.51563 -0.51172,-0.76954 -1.02735,-0.76954 -0.89843,0 -1.66796,-0.1289 -3.20703,-0.38671 -3.46093,-0.64063 -4.48828,-2.82032 -4.74609,-7.3125 -0.13672,-2.20704 -0.19922,-4.27344 -0.23047,-8.83204 h 0.10547 c -0.12891,-5.20312 -0.12891,-11.65625 -0.12891,-18.87109 v -22.57422 c 0,-20.01172 0,-23.60156 0.25391,-27.70703 0.25781,-4.48828 1.28516,-6.667968 4.74609,-7.308592 1.53907,-0.257813 2.3086,-0.386719 3.20703,-0.386719 0.51563,0 1.02735,-0.257813 1.02735,-0.769531"
     id="path2259" /><path
     style="fill:#211e1e;fill-opacity:1;fill-rule:nonzero;stroke:none"
     d="m 569.61719,113.88281 29.28515,62.55469 39.2461,-80.679688 c 0.64062,-1.410156 1.15625,-1.925781 1.92578,-1.925781 0.76953,0 1.28125,0.898438 1.41015,2.3125 l 9.23438,83.628909 c 0.51562,4.87109 0.89844,9.875 5.13281,10.64453 1.92188,0.38281 5.15235,0.38281 6.17969,0.38281 0.64062,0 1.28125,0.25781 1.28125,0.64453 0,0.89453 -0.89844,1.15235 -2.17969,1.15235 -3.46484,0 -11.95312,-0.38672 -13.10547,-0.38672 -1.02734,0 -7.18359,0.38672 -11.92968,0.38672 -1.53907,0 -2.3086,-0.25782 -2.3086,-1.15235 0,-0.38672 0.51172,-0.64453 1.02735,-0.64453 0.76953,0 2.6914,-0.12891 4.87109,-0.64062 1.92578,-0.38282 3.33594,-2.05079 3.33594,-3.97657 0,-2.17968 0,-4.48828 -0.12891,-6.53906 l -5.12891,-59.51562 H 637.25 c -1.41016,3.46093 -15.77344,34.24609 -16.92969,36.55468 -0.64062,1.28125 -11.67187,23.47266 -15.00781,29.75782 -2.4375,4.61718 -3.07813,5.89843 -3.97656,5.89843 -1.15235,0 -1.53907,-1.15234 -4.23047,-6.79687 l -27.48828,-58.34375 z m 0,0"
     id="path2261" /></g></svg>
